<svg width="100" height="90" viewBox="0 0 124 112" fill="none" xmlns="http://www.w3.org/2000/svg">
<path d="M65.0984 62.946C62.025 58.6656 58.0484 55.1137 53.45 52.5417C53.454 52.4678 53.4567 52.4028 53.4589 52.3463C53.4612 52.2899 53.4617 52.2344 53.4661 52.1954C54.2335 51.0596 55.0086 49.9342 55.7703 48.8514C60.9573 41.6166 63.7158 32.9227 63.6486 24.0209C63.6109 15.0345 60.0923 8.65404 52.8918 4.51887C48.5908 2.00735 43.7639 0.533018 38.7939 0.213302C30.1369 -0.369118 21.4109 0.351822 12.9708 1.04983C11.616 1.16183 10.2615 1.2723 8.90725 1.38102C1.36406 1.97644 0.966661 2.38178 0.404849 10.0567C0.00567345 15.5091 0.00615877 21.0743 0.00660724 26.4541L0.00398128 32.1137C-0.00542695 44.3217 -0.0148325 56.9452 0.18588 69.3596C0.320282 77.615 0.620379 86.0041 0.912039 94.1167C1.04465 97.811 1.17246 101.505 1.29552 105.199C1.30224 105.415 1.29911 105.631 1.29552 105.848C1.28074 106.259 1.29576 106.671 1.34037 107.08C1.70371 109.881 3.03969 111.251 5.80617 111.662C6.517 111.761 7.23414 111.806 7.95175 111.799C8.33926 111.799 8.72192 111.79 9.09551 111.779C10.666 111.733 12.2363 111.687 13.8068 111.644C19.4939 111.482 25.3746 111.314 31.1566 111.066L31.3806 111.056C37.6318 110.787 44.0957 110.507 50.4326 109.943C60.6957 109.029 67.5992 102.833 70.952 91.5277C73.8305 81.8027 71.8626 72.187 65.0984 62.946ZM41.6817 49.3953C39.5725 49.0069 37.3588 49.135 35.2183 49.2604C34.7416 49.2877 34.2663 49.316 33.7941 49.3379C27.172 49.6475 20.5803 49.9912 13.6016 50.3554C11.0765 50.4898 8.50766 50.6215 5.87915 50.7586C6.05836 44.7507 5.83842 38.7575 5.62427 32.9566C5.31067 24.4287 4.98317 15.6148 5.96522 6.83724C6.47741 6.80563 6.98431 6.77328 7.48581 6.7401C8.86213 6.65055 10.1623 6.56761 11.4843 6.50932C13.2213 6.43318 14.9586 6.34707 16.6955 6.26061C21.3061 6.03256 26.0735 5.79646 30.7592 5.75704C34.4854 5.72523 38.3074 6.20908 41.6751 6.63471C45.9354 7.17232 49.9026 9.27582 53.803 13.0616C56.0807 15.2721 57.1084 18.3142 57.1353 22.9238C57.2531 31.6462 54.1708 40.1094 48.4717 46.7131C46.4623 49.1019 44.4332 49.8989 41.6817 49.3953ZM6.71741 56.0895C7.36349 55.9134 8.02588 55.8046 8.69414 55.7633C11.9606 55.6979 15.2844 55.6698 18.4994 55.6429C24.6273 55.5918 30.9635 55.5385 37.1869 55.2222C52.5092 54.4355 63.5384 66.9113 65.3461 79.4177C66.3671 86.4853 64.4886 92.8096 59.7602 98.2137C57.9534 100.401 55.432 101.881 52.6404 102.391L52.0764 102.487C49.8797 102.909 47.659 103.191 45.4269 103.332C34.7538 103.758 23.897 104.099 13.3978 104.429L11.4502 104.489C10.6259 104.499 9.80159 104.462 8.98117 104.381C8.62281 104.353 8.24513 104.324 7.84103 104.297L5.91459 56.2696C6.1937 56.2096 6.45939 56.1478 6.71741 56.0908V56.0895Z" fill="black"/>
<path d="M105.91 67.8035C102.655 67.3869 99.3494 67.6897 96.2245 68.6915C93.0995 69.6929 90.2326 71.3687 87.8272 73.5994C85.4865 75.8281 83.6647 78.5434 82.4886 81.5537C81.3125 84.564 80.8121 87.7947 81.0224 91.02C81.1227 93.3865 81.7152 95.7067 82.7609 97.8323C83.8067 99.9572 85.2838 101.842 87.0975 103.365C91.1009 106.83 96.748 108.585 102.36 108.585C107.485 108.585 112.582 107.121 116.369 104.158C117.726 103.075 118.829 101.709 119.6 100.155C120.048 99.2555 119.47 97.4814 118.711 96.8132C117.973 96.1661 116.65 96.2022 115.462 96.2848C114.812 96.3292 114.245 96.9019 113.788 97.3599L113.699 97.4493C109.492 101.661 104.201 102.855 96.5467 101.312C90.7767 100.15 87.2865 95.6855 87.1418 89.3244H91.5651C95.1494 89.3223 98.6258 89.321 102.102 89.3278C104.064 89.3319 106.026 89.3414 107.987 89.3558C111.788 89.379 115.717 89.4036 119.581 89.3653C122.913 89.3333 123.901 88.3892 123.992 85.1592C124.116 80.7011 122.83 77.1646 120.06 74.3448C116.418 70.6397 111.79 68.5018 105.91 67.8035ZM117.788 83.8288L87.918 84.4151C90.6647 77.1332 95.7692 73.2335 102.476 73.2335C103.221 73.2342 103.966 73.2799 104.706 73.3707C112.614 74.3257 117.012 77.8431 117.788 83.8288Z" fill="black"/>
<path d="M115.946 55.1952C115.677 55.2015 115.474 55.1912 115.324 55.2078C113.039 55.4063 110.83 55.5957 108.678 55.7799C102.82 56.2826 97.2852 56.7566 91.8067 57.287C90.2326 57.4192 88.6934 57.8224 87.2558 58.4787C86.8429 58.6704 86.4954 58.9801 86.2565 59.3676C86.0169 59.7556 85.8975 60.2054 85.9118 60.661C85.9295 61.1538 86.09 61.6314 86.3726 62.0355C86.6558 62.4396 87.049 62.7537 87.507 62.9391C88.2913 63.2411 89.1268 63.3894 89.9671 63.3755C90.1118 63.3755 90.2483 63.372 90.3746 63.3661C99.1596 62.9531 108.087 62.4871 116.721 62.0364L117.627 61.9889C118.372 61.9804 119.113 61.8841 119.835 61.7013C121.663 61.161 122.643 59.9038 122.523 58.252C122.397 56.5124 121.184 55.3552 119.359 55.2329C118.06 55.1433 116.737 55.1751 115.946 55.1952Z" fill="black"/>
</svg>
