<svg width="100" height="100" viewBox="0 0 124 124" fill="none" xmlns="http://www.w3.org/2000/svg">
<path d="M57.4028 7.81607C57.2788 7.83378 57.1548 7.84706 57.0308 7.86478C57.1194 7.85149 57.208 7.84264 57.2921 7.82935C57.332 7.82492 57.3674 7.82049 57.4028 7.81607ZM123.988 61.5986C123.886 65.6859 122.863 69.7999 121.734 73.7101C120.618 77.585 119.418 81.5439 117.593 85.1442C115.817 88.6426 113.847 92.0879 111.566 95.2851C109.237 98.5356 106.456 101.525 103.613 104.328C102.174 105.758 100.69 107.122 99.149 108.442C97.4928 109.854 95.7702 111.254 93.9191 112.41C90.5757 114.5 86.9755 116.063 83.3752 117.657C81.285 118.592 79.2081 119.544 77.0648 120.332C75.3156 120.974 73.4911 121.488 71.6666 121.882C69.5233 122.338 67.3799 122.723 65.1968 122.954C63.328 123.144 61.4415 123.348 59.5639 123.228C57.363 123.1 55.1931 122.834 53.0497 122.338C51.1367 121.9 49.2369 121.368 47.3239 120.925C45.2071 120.438 43.2099 119.796 41.2127 118.946C39.406 118.184 37.6302 117.334 35.8898 116.444C35.5931 116.293 35.3939 116.045 35.1636 115.828C33.1177 116.391 31.0895 117.002 29.0436 117.569C26.5061 118.264 23.9421 118.897 21.3869 119.53C18.7211 120.181 16.0818 120.903 13.4336 121.629C10.6216 122.409 7.752 122.985 4.90456 123.644C2.91623 124.101 0.857038 123.06 0.294636 121.023C0.188355 120.638 0.197212 120.239 0.219354 119.84C0.197212 119.778 0.1485 119.73 0.130786 119.663C-0.152629 118.627 0.0466471 117.684 0.516054 116.749C3.01808 111.683 5.45368 106.582 7.82728 101.449C8.35869 100.302 8.88124 99.1688 9.47464 98.0706C10.0813 96.9546 10.5906 95.8165 11.1308 94.6696C11.8881 93.071 12.7206 91.5166 13.531 89.9445C12.8446 89.2581 12.1051 88.6293 11.4807 87.8721C10.347 86.5081 9.20008 85.0158 8.28341 83.4835C7.36673 81.9513 6.76448 80.2774 5.85666 78.7452C4.88685 77.1067 4.21817 75.3575 3.51849 73.5861C3.19079 72.7536 2.84095 71.9299 2.56639 71.0841C2.30069 70.2782 2.15455 69.4368 1.9907 68.5998C1.55229 66.3812 1.23788 64.1272 1.02974 61.8775C0.848181 60.0265 0.790612 58.1666 0.737472 56.3155C0.684331 54.336 0.728615 52.3566 0.95889 50.3859C1.23345 48.1496 1.47258 45.869 2.07484 43.6814C2.65938 41.5558 3.37678 39.4833 4.25359 37.4507C5.83009 33.8239 7.80071 30.352 10.0238 27.0706C11.3523 25.1177 12.7649 23.2312 14.2573 21.3979C15.5016 19.8656 16.8213 18.3379 18.2782 17.0094C21.4489 14.1531 25.0492 11.6156 28.7602 9.51656C32.4888 7.41751 36.3637 5.67717 40.3403 4.10067C43.914 2.68802 47.5497 1.6075 51.3714 1.09381C51.7124 1.04952 52.0489 1.00081 52.3811 0.956527C52.4431 0.947671 52.5051 0.938813 52.5671 0.934385C53.2313 0.841389 53.8911 0.752822 54.5554 0.655398C55.3614 0.553546 56.1673 0.43398 56.9821 0.363126C58.5852 0.234703 60.1883 0.150564 61.7913 0.0885672C62.8187 0.0531403 63.8461 0 64.8735 0C65.4049 0 65.9407 0.0132855 66.4721 0.0531408C68.3586 0.181563 70.2451 0.345413 72.1227 0.637685C73.6726 0.876817 75.1916 1.27094 76.7238 1.65621C80.1115 2.48874 83.384 3.63569 86.5725 5.07491C88.4147 5.89858 90.2082 6.8064 91.9884 7.7585C93.7376 8.70174 95.4159 9.75569 97.1208 10.8008C98.9365 11.9079 100.73 12.9884 102.399 14.3169C104.003 15.6011 105.588 16.9119 107.08 18.3201C108.462 19.6398 109.684 21.1587 110.875 22.6555C112.177 24.2763 113.36 25.9724 114.502 27.7039C116.756 31.1004 118.669 34.7051 119.989 38.5711C120.582 40.3026 121.061 42.0783 121.592 43.8408C122.123 45.6033 122.571 47.3879 122.938 49.1903C123.368 51.3425 123.589 53.5611 123.78 55.7487C123.935 57.6972 124.036 59.6412 123.988 61.5986ZM116.229 52.392C115.826 49.952 115.286 47.5429 114.573 45.1649C113.878 42.8356 113.2 40.5328 112.319 38.2611C111.438 36.3126 110.362 34.4881 109.228 32.6681C108.139 30.9056 106.978 29.1652 105.738 27.5002C104.631 26.0742 103.498 24.6084 102.191 23.3685C100.814 22.0577 99.3749 20.8399 97.8958 19.6487C96.7887 18.8383 95.6373 18.0943 94.4505 17.3858C93.2062 16.6418 91.9884 15.8181 90.7218 15.0963C88.2951 13.7146 85.8064 12.4216 83.2512 11.279C81.1167 10.4111 78.9557 9.5697 76.7105 9.01615C74.576 8.48918 72.4327 7.9622 70.2628 7.62122C68.1062 7.42637 65.9496 7.25366 63.7752 7.3688C61.6541 7.47951 59.5063 7.57251 57.3984 7.82049C57.5401 7.80278 57.6862 7.78064 57.8324 7.76292C57.6508 7.78507 57.4737 7.80721 57.2921 7.82935C57.1416 7.84706 56.991 7.86921 56.8449 7.89135C56.9069 7.88249 56.9689 7.87363 57.0308 7.86478C56.743 7.90463 56.4552 7.94449 56.1673 7.98434C56.3312 7.9622 56.495 7.94006 56.6589 7.92235C56.6854 7.91792 56.7076 7.91349 56.7342 7.91349C56.7253 7.91349 56.7164 7.91792 56.7076 7.91792C56.8626 7.9002 57.0131 7.87806 57.1681 7.86035C56.9866 7.88692 56.8006 7.90906 56.619 7.93563C55.844 8.05963 55.0691 8.17919 54.2897 8.29433C53.9708 8.38732 53.6387 8.44046 53.3066 8.44932C52.9258 8.51132 52.5449 8.57332 52.1641 8.63974C50.7071 8.88773 49.2856 9.25528 47.8686 9.65827C45.2293 10.3934 42.7228 11.4739 40.2119 12.5411C40.2518 12.5234 40.2961 12.5057 40.3359 12.488C37.5593 13.7146 34.8757 15.1804 32.263 16.7127C29.9381 18.0677 27.7505 19.7328 25.5895 21.3624C23.3354 23.2401 21.4224 25.4675 19.5713 27.7349C16.7062 31.5787 14.1908 35.7236 12.1892 40.0767C11.5648 41.5646 10.9537 43.0703 10.564 44.6246C10.1345 46.334 9.78019 48.0433 9.51449 49.7748C9.0008 54.4025 9.0318 59.1231 9.5942 63.7419C9.84219 65.4158 10.0548 67.1429 10.5507 68.7548C10.9759 70.1453 11.4718 71.527 12.0032 72.8865C12.3132 73.5374 12.6542 74.1663 12.9686 74.8172C13.3495 75.6011 13.6904 76.3982 14.027 77.1997C13.9783 77.0801 13.9296 76.9606 13.8764 76.841C14.7532 78.9268 15.9179 80.7822 17.242 82.5846C18.3845 83.9175 19.651 85.0866 21.0017 86.207C21.7722 86.8491 22.1663 88.0492 22.1663 89.019C22.1663 90.0641 21.7456 91.0782 21.0017 91.8221C20.9308 91.893 20.829 91.924 20.7537 91.9904C20.6828 92.172 20.6695 92.3668 20.5721 92.5396C19.6112 94.2356 18.7742 96.0025 17.9151 97.7517C16.9807 99.6382 16.0198 101.498 15.0455 103.367C14.0181 105.329 13.1015 107.344 12.1051 109.323C11.1618 111.205 10.3027 113.118 9.47464 115.045C9.48792 115.014 9.50121 114.978 9.51449 114.947C9.49235 114.996 9.47464 115.045 9.45249 115.093C9.46135 115.076 9.46578 115.058 9.47464 115.04C9.46578 115.062 9.45692 115.084 9.44364 115.111C10.1345 114.969 10.8297 114.845 11.5161 114.673C14.1731 114.004 16.8036 113.242 19.4695 112.591C22.0335 111.967 24.6108 111.382 27.1394 110.66C29.6414 109.947 32.1213 109.11 34.672 108.57C34.9643 108.508 35.261 108.477 35.5533 108.477C36.3725 108.477 37.1519 108.739 37.7807 109.208C38.4893 109.203 39.1712 109.336 39.8576 109.66C41.4031 110.399 43.0018 111.05 44.5739 111.732C45.5658 112.131 46.5799 112.494 47.6161 112.746C48.7985 113.03 49.9809 113.278 51.1544 113.57C53.4173 114.154 55.6403 114.845 57.9475 115.253C59.245 115.403 60.5558 115.514 61.8578 115.474C63.297 115.425 64.7185 115.31 66.14 115.155C69.8465 114.584 73.4424 113.694 76.9275 112.299C79.6598 111.094 82.3921 109.903 85.089 108.623C87.6043 107.432 89.9602 106.059 92.2231 104.447C96.9924 100.666 101.43 96.3524 105.225 91.5875C106.593 89.6877 107.882 87.7126 109.011 85.6623C110.109 83.6651 111.203 81.6768 112.133 79.591C113.183 76.9251 114.011 74.1928 114.821 71.4472C115.605 68.8079 116.207 66.1288 116.615 63.4142C116.978 59.7519 116.69 56.0454 116.229 52.392ZM44.5871 50.0317C47.2176 49.9475 49.8348 49.766 52.4652 49.6907C54.9495 49.6154 57.4383 49.5977 59.9226 49.5534C62.2607 49.518 64.5945 49.5268 66.9327 49.487C68.0486 49.4693 69.169 49.487 70.2849 49.4693C70.8916 49.4604 71.485 49.4516 72.0917 49.4427C72.632 49.4427 73.1811 49.518 73.7125 49.4516C74.7222 49.3231 75.537 49.1327 76.2765 48.3887C76.9541 47.7112 77.3393 46.7768 77.3393 45.8159C77.3393 43.8143 75.6256 42.1802 73.6948 42.1802C73.3804 42.1802 73.0615 42.2245 72.7383 42.3175C72.7205 42.3263 72.7028 42.3307 72.6851 42.3352C71.7817 42.3927 70.8739 42.3795 69.9705 42.3795C68.8634 42.3795 67.7608 42.4326 66.6625 42.4547C64.3067 42.4902 61.964 42.6097 59.6082 42.6762C54.5952 42.8046 49.5956 42.8311 44.5827 42.9064C42.6387 42.933 41.0179 44.5095 41.0179 46.4713C41.0223 48.3622 42.6431 50.0848 44.5871 50.0317ZM74.8594 55.6557C74.8506 55.6557 74.8373 55.6557 74.8284 55.6557C72.6408 55.6734 70.4488 55.7753 68.2523 55.793C65.861 55.8018 63.4697 55.8461 61.0695 55.9745C58.5144 56.1118 55.9592 56.2048 53.3996 56.2757C50.5522 56.351 47.6914 56.2225 44.8528 56.1738C42.8379 56.1472 41.1507 57.8787 41.1507 59.8671C41.1507 61.882 42.8379 63.5692 44.8528 63.5603C50.22 63.5515 55.5828 63.1928 60.9588 63.0732C63.297 63.0201 65.6307 63.0289 67.9689 62.9979C70.2495 62.9802 72.5478 62.9226 74.8284 63.0333C76.8434 63.1352 78.5306 61.2841 78.5306 59.3401C78.5261 57.3606 76.8611 55.6557 74.8594 55.6557ZM73.3759 69.6626C73.3184 69.6626 73.2564 69.6626 73.1988 69.6626C72.694 69.6626 72.198 69.6715 71.6932 69.8088C71.5603 69.8442 71.4319 69.8885 71.3079 69.9372C67.5305 69.9682 63.7487 69.8973 59.9757 69.8708C55.1089 69.8353 50.2377 69.6316 45.371 69.6892C43.3118 69.7069 41.5803 71.3941 41.5803 73.471C41.5803 75.5036 43.3118 77.3104 45.371 77.2617C47.8376 77.1997 50.2909 77.0624 52.7531 77.0624C55.1621 77.0536 57.5623 77.1067 59.9713 77.1156C62.1899 77.1244 64.4041 77.2085 66.6227 77.2705C67.7696 77.3148 68.921 77.2971 70.068 77.2883C70.4842 77.2838 70.8961 77.2794 71.3123 77.2794C71.4319 77.3281 71.5603 77.3724 71.6887 77.4078C72.2556 77.5628 72.8047 77.5451 73.3759 77.5451C75.5281 77.5628 77.326 75.7516 77.326 73.6039C77.326 71.4694 75.5326 69.6538 73.3759 69.6626Z" fill="#111918"/>
</svg>
