
<svg width="91" height="102" viewBox="0 0 500 500" fill="none" xmlns="http://www.w3.org/2000/svg">
  <path d="M62.43,19.79c-.52.43-.51,2.47-1.98,2.36-.53-.04-2.5-1.56-2.76-2.06-.43-.83-.2-1.64.54-2.17.67-.48,3.56-1.2,4.52-1.43.77-.18,1.65-.51,2.37-.04.86.57.72,1.89-.1,2.43-.58.39-2.19.56-2.59.89Z"/>
  <path d="M75.77,38.39c1.58,1.4-1.27,3.3-2.4,3.78s-1.64-.04-2.05-1.04c-.28-.69-.42-1.1-.04-1.8.58-1.06,1.66-.72,2.56-.86.63-.1,1.14-.78,1.93-.08Z"/>
  <g>
    <path d="M71.2,106.2c1.24,1.03,2.25,2.37,3.55,3.35,1.35-.62,2.51-4.18,4.22-2.33,2.55,2.75,5.18,6.86,3.34,10.67-1.61,3.35-4.03.56-6.18.64-1.02.04-1.92,1.09-3.01.99s-4.77-2.6-6.13-3.24c-.65-.31-3.88-1.49-4.1-1.72-.41-.42-.52-1.94-.25-2.42.16-.27.64-.37.65-.62-1.44-3.18,1.39-6.45,4.61-6.64,1.48-.09,2.22.43,3.3,1.32ZM65.69,113.09c2.65,1.01,5.09,2.48,7.54,3.9.63-.14,1.13-.57,1.76-.72,1.85-.45,3.18.31,4.91.74,1.73-2.48-.43-5.14-2-7.07-.73.63-2.12,2.79-3.15,2.65-.2-.03-.65-.31-.84-.44-1.5-.99-3.06-3.13-4.55-4.31-.25-.2-.65-.53-.96-.57-.68-.09-1.93.52-2.4,1.01-1.61,1.66.68,2.97-.31,4.8Z"/>
    <path d="M86.15,104.79c2.25-.21,3.98.73,4.86,2.79,1.04,2.44.94,3.96-.35,6.27-.59,1.05-1.05,1.26-1.76,2.03-1.07,1.16-.59,3.46-1.26,4.94-.26.56-.74,1.23-1.38,1.27-1.93.15-1.38-1.55-1.46-2.85-.2-3.09.06-7.33-1.97-9.79-.98-1.19-3.4-2.01-1.28-3.71,1.48-.23,3.16-.81,4.61-.95ZM86.94,114.24c1.04-.15,2.4-3.04,2.38-3.86,0-.33-.57-1.94-.76-2.26-.76-1.24-2.91-.94-4.03-.4,1.6,1.82,2.28,4.11,2.4,6.51Z"/>
    <path d="M96.89,100.25c.87-.01,2.14.34,2.82.91,1.56,1.31,2.55,4.37.65,5.81s-3.46-1.33-5.2-.77c-.57.18-.58.81-1.64.65-2.32-.34-2.74-5.67-.03-6.25.71-.15,2.68-.35,3.41-.36ZM98.95,104.63c-.18-.7-.62-1.66-1.38-1.84-.39-.09-1.87.03-2.35.07-.79.08-1.24.07-1.08,1.01.77-.06,1.55-.22,2.33-.12.88.12,1.6.8,2.48.87Z"/>
    <path d="M73.62,103.64c3.16-.72,3.18,4.83.07,3.67-1.58-.59-1.65-3.31-.07-3.67Z"/>
  </g>
</svg>
