<svg width="124" height="74" viewBox="0 0 124 74" fill="none" xmlns="http://www.w3.org/2000/svg">
<path d="M41.2425 60.0492C41.2383 60.0533 41.2383 60.0533 41.2425 60.0492ZM86.6596 13.4334C84.9153 16.7566 83.1504 20.0674 81.2945 23.3327C79.108 27.1891 76.8843 31.029 74.7473 34.9185C73.9454 36.3569 73.1188 37.7829 72.3954 39.2626C71.6432 40.7919 70.9322 42.3337 70.2089 43.8713C68.7044 47.025 67.1378 50.1498 65.5424 53.254C64.0296 56.201 62.5209 59.1522 61.0164 62.0993C60.2476 63.6121 59.4788 65.129 58.7968 66.6749C58.0776 68.2704 57.3749 69.8783 56.6185 71.4489C55.8538 73.0113 53.75 73.4371 52.2744 72.722C51.7494 72.6683 51.241 72.5277 50.7244 72.2797C47.5789 70.7917 44.483 69.2087 41.3995 67.5801C39.6057 66.6212 39.0642 64.1701 40.0603 62.4589C40.2381 62.1572 40.5274 61.996 40.7671 61.7686C40.8167 61.252 40.9531 60.7477 41.1805 60.2145C41.2011 60.1608 41.2218 60.1112 41.2466 60.0574C41.2507 60.0533 41.2507 60.045 41.2549 60.0368C41.2507 60.0409 41.2507 60.0492 41.2466 60.0574C41.2879 59.9582 41.3293 59.8508 41.3747 59.7516C41.3665 59.7681 41.3582 59.7888 41.3541 59.8053C41.3623 59.7846 41.3747 59.7598 41.383 59.7392C41.383 59.735 41.3871 59.735 41.3871 59.7309C41.3995 59.6978 41.4161 59.6648 41.4285 59.6317C41.4119 59.6689 41.3995 59.702 41.383 59.7392C41.383 59.7433 41.3747 59.7474 41.3747 59.7516C41.4491 59.578 41.5235 59.4044 41.5979 59.2308C41.5566 59.33 41.5153 59.425 41.4739 59.5242C44.111 53.2788 46.7935 47.0333 49.7571 40.9283C51.303 37.7498 52.9853 34.6374 54.6469 31.5126C56.2837 28.4415 57.8089 25.3167 59.4292 22.2456C61.0329 19.1911 62.7565 16.1986 64.385 13.1523C66.0962 9.95722 67.7372 6.72908 69.5889 3.60427C69.9981 2.91814 70.6429 2.50894 71.3497 2.24027C71.4117 2.08734 71.42 1.922 71.5068 1.77734C72.1888 0.607602 73.3875 0 74.6316 0C75.2599 0 75.9005 0.157066 76.4875 0.4712C80.3687 2.56267 84.3243 4.57561 88.0649 6.90681C89.7017 7.93188 90.3341 10.0606 89.338 11.7718C88.7469 12.7596 87.7343 13.3052 86.6596 13.4334ZM41.2383 60.0533C41.2631 59.9996 41.2838 59.9417 41.3086 59.888L41.3045 59.8921C41.2838 59.95 41.2631 59.9996 41.2383 60.0533ZM77.0083 17.732C78.2441 15.4794 79.3891 13.1812 80.534 10.879C78.6781 9.87869 76.8264 8.87841 74.9623 7.89881C74.2389 9.09748 73.5032 10.292 72.8212 11.5155C72.0689 12.8547 71.3828 14.227 70.6594 15.5703C69.2128 18.2694 67.7206 20.9478 66.2574 23.6386C64.5876 26.7179 63.0624 29.8758 61.4669 32.9882C59.8466 36.1667 58.1892 39.3205 56.602 42.5197C53.6342 48.5006 51.0054 54.6676 48.3931 60.8138C48.1658 61.3677 47.9385 61.9216 47.7111 62.4796C49.2611 63.3104 50.8111 64.1412 52.3612 64.9637C52.791 64.0296 53.2126 63.0954 53.6673 62.1737C54.618 60.2228 55.61 58.3008 56.5978 56.3746C58.5157 52.6422 60.479 48.9346 62.3308 45.1691C63.1244 43.5571 63.9014 41.9493 64.6578 40.329C65.3522 38.841 66.0053 37.3323 66.77 35.8857C68.3902 32.8642 70.0394 29.8551 71.7506 26.875C73.499 23.8246 75.3219 20.8196 77.0083 17.732ZM39.1882 50.0506C39.5519 50.8111 39.771 51.8155 39.461 52.5802C38.4607 55.0065 37.4605 57.4369 36.4643 59.8632C36.0841 60.7808 35.6873 61.5165 34.7862 62.0373C34.5506 62.1737 34.2819 62.215 34.0298 62.2977C33.0254 63.6534 31.153 64.0792 29.6608 63.2401C28.3878 62.5209 27.2263 61.5124 26.0524 60.6402C24.986 59.8384 23.9196 59.02 22.8491 58.2305C20.3402 56.3788 17.7775 54.5808 15.4091 52.5389C13.0903 50.5425 10.8087 48.4924 8.47335 46.5125C6.17934 44.5615 3.78201 42.7305 1.44667 40.8291C1.116 40.5605 0.880402 40.1595 0.719201 39.7297C0.289334 39.1345 0 38.4566 0 37.7291C0 36.7537 0.396801 35.9849 1.0168 35.2698C2.86854 33.1205 4.77401 31.0497 6.80761 29.0656C8.48575 27.4371 10.3168 25.978 12.1272 24.5066C15.9588 21.3942 19.745 18.2404 23.6386 15.219C24.5479 14.5163 25.4655 13.826 26.379 13.1275C26.5691 12.9787 26.7634 12.8299 26.9535 12.6811C26.9039 12.7224 26.8502 12.7596 26.8006 12.801C26.8626 12.7555 26.9204 12.7059 26.9824 12.6563C26.9907 12.648 27.0031 12.6398 27.0114 12.6356C27.1602 12.524 27.3048 12.4083 27.4536 12.2967C27.309 12.4083 27.1643 12.5158 27.0196 12.6315C28.301 11.623 29.5864 10.6062 30.8843 9.62242C31.3059 9.30828 31.9053 9.17602 32.4798 9.17188C32.7567 9.10575 33.0378 9.06028 33.323 9.06028C33.6413 9.06028 33.9554 9.10162 34.2654 9.18842C35.1913 9.44468 35.8443 10.0316 36.3734 10.817C37.9358 13.1234 39.3287 15.5414 41.0151 17.7486C41.1433 17.918 41.1639 18.1619 41.2342 18.3727C42.0981 18.6248 42.8545 19.1952 43.305 19.9806C43.7845 20.7824 43.9085 21.762 43.6605 22.6714C43.4042 23.5972 42.8255 24.2214 42.0567 24.7504C41.5773 25.0811 41.0978 25.4242 40.6349 25.7796C39.8082 26.4286 38.9691 27.0692 38.097 27.6479C37.3778 28.1232 36.6669 28.582 35.9766 29.0863C34.1993 30.5289 32.5583 32.1202 30.905 33.7033C29.7063 34.8523 28.5118 36.0014 27.3172 37.1505C28.8176 38.4525 30.3263 39.7503 31.7895 41.0895C33.6123 42.7594 35.4351 44.4251 37.3695 45.9545C37.5059 46.0578 37.6465 46.1653 37.7829 46.2686C38.5021 46.7894 39.0394 47.3267 39.2874 48.2113C39.461 48.8189 39.3825 49.4513 39.1882 50.0506ZM26.6766 52.9646C27.6686 53.6921 28.6688 54.4196 29.665 55.1264C29.8964 55.2917 30.1362 55.4653 30.3676 55.6389C31.0497 53.9732 31.7358 52.3074 32.4137 50.6417C32.4633 50.5177 32.5335 50.4309 32.5831 50.3152C30.905 48.9264 29.2682 47.4921 27.6272 46.0454C25.4572 44.1234 23.2459 42.251 21.018 40.391C20.584 40.2257 20.1748 39.9777 19.8235 39.6263C18.5174 38.3119 18.4512 36.0097 19.8235 34.7035C22.7044 31.9879 25.5978 29.2847 28.5448 26.6352C29.7022 25.6019 30.8636 24.5768 32.0871 23.622C33.0915 22.8326 34.1373 22.0968 35.1706 21.3446C35.1375 21.2991 35.0962 21.2702 35.0631 21.2247C33.9926 19.8442 32.9882 18.4016 31.9962 16.955C30.3966 18.1082 28.8176 19.2903 27.2428 20.4683C27.094 20.584 26.9452 20.6998 26.7964 20.8114C23.1715 23.6262 19.7036 26.66 16.1903 29.6113C14.4874 31.0497 12.8299 32.517 11.2923 34.1455C10.1515 35.3483 9.08508 36.6049 7.99801 37.849C9.92828 39.4651 11.8544 41.0813 13.7599 42.7222C16.0663 44.7145 18.3396 46.7522 20.7039 48.6701C22.6672 50.1457 24.6967 51.5221 26.6766 52.9646ZM23.2748 15.4959C23.3947 15.4008 23.5187 15.314 23.6386 15.219C23.7336 15.1446 23.8246 15.066 23.9196 14.9916C23.7006 15.157 23.4898 15.3306 23.2748 15.4959ZM27.0114 12.6356C27.0072 12.6398 27.0031 12.6439 26.9948 12.648C27.0031 12.6439 27.0072 12.6398 27.0155 12.6315C27.0155 12.6356 27.0114 12.6356 27.0114 12.6356ZM26.9948 12.648C26.9824 12.6604 26.97 12.6728 26.9535 12.6811C26.9618 12.6728 26.9742 12.6646 26.9824 12.6563C26.9907 12.6563 26.9907 12.6522 26.9948 12.648ZM122.996 41.0854C121.161 43.0735 119.23 44.9501 117.296 46.8431C115.304 48.8024 113.34 50.7739 111.29 52.667C109.186 54.6014 107.004 56.449 104.941 58.433C102.701 60.5824 100.473 62.7524 98.2536 64.9182C96.9475 66.183 94.8436 66.2161 93.5457 64.9182C93.3515 64.724 93.2399 64.476 93.1035 64.2445C91.5948 63.4344 90.3424 62.1696 89.0611 61.0536C87.7632 59.9128 86.4447 58.8133 85.1137 57.7262C84.4441 57.1806 84.1052 56.1225 84.1052 55.2917C84.1052 54.4733 84.4359 53.7004 84.9649 53.0845C84.7789 52.0388 84.9856 50.9269 85.8205 50.2201C90.2721 46.4463 94.7527 42.6809 98.3983 38.097C98.4479 38.0309 98.4975 37.9606 98.5471 37.8903C94.7899 34.6746 91.2683 31.2067 88.0608 27.4454C87.4325 26.7096 87.0275 25.9408 87.0275 24.953C87.0275 24.0106 87.3995 23.1095 88.0608 22.4523C88.2551 22.258 88.5196 22.1423 88.7635 22.0018C88.8379 21.8199 88.8503 21.6174 88.9619 21.4479C90.2267 19.5218 91.4791 17.5915 92.7522 15.6571C93.5168 14.4998 94.7692 13.793 96.0712 13.793C96.1828 13.793 96.2986 13.826 96.4102 13.8384C96.9971 13.3796 97.6956 13.0986 98.419 13.0986C99.2539 13.0986 100.089 13.4086 100.701 14.0451C104.177 17.6452 107.529 21.3528 111.125 24.8496C114.46 28.0943 117.829 31.3225 121.268 34.4638C121.582 34.749 121.814 35.1003 121.967 35.4765C122.343 35.6459 122.702 35.8485 122.992 36.1378C124.385 37.5183 124.285 39.6718 122.996 41.0854ZM112.468 42.0113C113.659 40.7547 114.849 39.4941 116.039 38.2334C114.535 36.8239 113.051 35.3855 111.534 33.9761C109.881 32.4467 108.281 30.8802 106.669 29.3013C103.842 26.536 101.085 23.7006 98.3198 20.8692C97.3691 22.2746 96.4184 23.684 95.443 25.077C96.4928 26.255 97.5138 27.4619 98.6174 28.5944C100.188 30.2065 101.837 31.6821 103.573 33.0957C103.805 33.2858 103.941 33.5834 104.094 33.8645C104.718 34.0091 105.318 34.2571 105.764 34.7077C107.062 36.0055 107.103 38.2417 105.764 39.5395C105.483 39.8123 105.227 40.1017 104.979 40.4034C103.024 42.9247 100.932 45.2973 98.6256 47.5086C96.2779 49.7695 93.8599 51.9437 91.4047 54.0848C92.0991 54.6758 92.8059 55.2586 93.4838 55.8662C94.2236 56.5193 94.9387 57.1972 95.6909 57.8337C95.7695 57.8874 95.8563 57.9288 95.9348 57.9784C99.4936 54.6469 103.094 51.365 106.595 47.9757C108.608 46.0413 110.55 44.0407 112.468 42.0113Z" fill="#111918"/>
</svg>
