<svg width="73" height="124" viewBox="0 0 73 124" fill="none" xmlns="http://www.w3.org/2000/svg">
<path d="M72.7923 60.9491C72.8171 58.7006 72.7593 56.4727 72.4204 54.2408C72.0732 51.9551 71.2589 49.8182 70.238 47.7433C69.1013 45.4411 67.4728 43.4034 65.4269 41.8369C63.7901 40.5804 61.7359 39.8694 59.6734 39.8694C59.2849 39.8694 58.8963 39.8942 58.5119 39.948C57.396 40.0968 56.3006 40.291 55.2053 40.506C54.9325 40.1836 54.7052 39.824 54.4076 39.5222C53.5479 38.6295 52.4526 37.8896 51.2994 37.4556C50.2454 37.0588 49.117 36.9679 47.9969 36.8894C47.596 36.8563 47.1909 36.8646 46.7859 36.8522C46.7239 35.8395 46.666 34.8269 46.6123 33.8183C46.5131 32.132 46.5048 30.4373 46.5048 28.7468C46.5213 21.7451 47.3893 14.5408 45.6947 7.66307C45.4674 6.74548 45.0623 5.86923 44.6903 5.00951C44.3514 4.24486 43.8389 3.43474 43.2478 2.84368C42.7849 2.37249 42.2682 1.8765 41.7061 1.52931C40.9662 1.06638 40.1892 0.743987 39.3708 0.450525C38.445 0.115731 37.4075 0 36.3907 0C35.9691 0 35.5475 0.0206663 35.1425 0.0537324C34.3944 0.111598 33.6504 0.231463 32.9188 0.36786C32.0095 0.537324 31.1167 0.991983 30.2983 1.41358C29.2526 1.95503 28.3846 2.89742 27.7191 3.83153C27.5331 4.09193 27.3554 4.36059 27.1818 4.62512C26.661 5.43524 26.3056 6.41069 25.9418 7.29521C25.3508 8.75425 24.9209 10.2422 24.6688 11.7963C24.3753 13.615 24.1976 15.4377 24.0943 17.2646C23.9992 18.8435 24.024 20.4183 23.8959 21.9807C23.7595 23.6133 23.4991 25.2253 23.3544 26.8579C23.2015 28.5112 23.2263 30.1852 23.1602 31.8468C23.0651 34.1366 23.0403 36.4264 22.999 38.7121C21.201 38.7493 19.4609 39.2329 17.882 40.1464C17.3447 40.4605 16.7949 40.8697 16.332 41.2665C15.6004 41.8989 15.0424 42.742 14.5382 43.5646C13.9884 44.4408 13.6702 45.5279 13.4015 46.524C12.6865 49.161 12.7113 51.9014 12.7609 54.6045C12.7774 55.5056 12.8435 56.4066 12.8807 57.3077C12.517 57.5846 12.1491 57.8574 11.7854 58.126C10.934 58.7584 10.0494 59.3743 9.28479 60.0976C7.96215 61.3459 6.71391 62.6602 5.4574 63.9746C4.10995 65.3882 2.89477 66.9175 1.86146 68.5832C1.32413 69.4429 0.927342 70.4184 0.604948 71.3731C0.286687 72.3321 0.137888 73.291 0.0262901 74.2954C-0.0646416 75.0724 0.100689 75.928 0.212287 76.6885C0.733078 80.2762 2.90718 83.3431 4.72168 86.3769C6.67671 89.6298 8.90867 92.7876 11.5209 95.5445C12.3682 96.4414 13.2775 97.2598 14.2158 98.0492L14.2116 98.0575C13.9843 98.508 13.8314 98.9957 13.8396 99.5289C13.8975 102.906 14.0504 106.27 14.0091 109.639C13.976 112.908 13.9595 116.161 13.8231 119.422C13.7983 120.038 14.0174 120.584 14.3232 121.084C14.5712 122.688 15.9187 123.948 17.572 123.956C18.9277 123.965 20.2834 123.956 21.635 123.948C23.6148 123.94 25.5864 123.923 27.5662 123.956C30.6744 124.014 33.7826 123.998 36.8867 123.998C40.2636 124.006 43.6363 123.981 47.0049 123.915C48.6045 123.89 50.1917 123.804 51.7913 123.729C53.3578 123.655 54.9243 123.663 56.4908 123.655C57.553 123.646 58.6153 123.655 59.6775 123.655C60.0743 123.655 60.4711 123.663 60.872 123.671C61.5623 123.688 62.2525 123.704 62.9387 123.655C63.8066 123.589 64.5713 123.349 65.1954 122.712C65.7947 122.121 66.1295 121.299 66.1295 120.456C66.1295 120.398 66.0965 120.348 66.0965 120.29C66.1047 120.265 66.1295 120.249 66.1337 120.224C66.2783 119.666 66.2949 119.116 66.175 118.567C66.0799 117.318 66.0923 116.062 66.0262 114.81C65.9435 113.202 65.865 111.59 65.7327 109.982C65.4227 106.369 65.4103 102.761 65.3277 99.1445C65.2946 97.7185 64.406 96.491 63.1412 95.995C63.4966 95.4659 63.9224 94.9865 64.2448 94.4285C65.1045 92.9694 65.9973 91.5228 66.9479 90.1216C68.9195 87.2077 70.6968 84.2483 71.6144 80.8218C72.0938 79.0527 72.4245 77.2589 72.6105 75.4361C72.7882 73.7415 72.7469 72.0303 72.7303 70.3233C72.6973 67.1986 72.751 64.0738 72.7923 60.9491ZM53.5314 117.471C50.3363 117.624 47.1455 117.715 43.9505 117.699C37.5067 117.674 31.0505 117.748 24.6192 117.48C23.2635 117.422 21.9036 117.389 20.5438 117.343C20.5851 114.859 20.5686 112.375 20.5438 109.887C20.5149 107.473 20.5562 105.055 20.581 102.637C26.6569 102.497 32.7328 102.261 38.8169 102.249C42.045 102.24 45.2648 102.216 48.497 102.191C49.9974 102.182 51.4978 102.174 52.9982 102.191C54.5399 102.199 56.0898 102.182 57.6315 102.311C57.9911 102.344 58.3466 102.385 58.7062 102.426C58.8261 104.948 58.9418 107.469 59.0906 109.986C59.1898 111.594 59.2435 113.206 59.2849 114.814C59.3014 115.661 59.2973 116.517 59.3055 117.368C57.3753 117.385 55.4492 117.376 53.5314 117.471ZM66.0593 65.785C65.8691 69.2156 66.0055 72.6793 65.6335 76.0933C65.3607 77.8169 64.964 79.5281 64.3936 81.1772C63.4594 83.2067 62.2691 85.0584 61.0208 86.9183C59.7478 88.8155 58.6773 90.8449 57.334 92.6925C56.9496 93.1678 56.5569 93.6308 56.1436 94.0813C55.6641 94.5979 55.412 95.2303 55.2797 95.8793C55.0689 95.8793 54.8581 95.8627 54.6473 95.8627C54.0604 95.8627 53.4735 95.871 52.8866 95.8793C49.7081 95.9371 46.5337 96.0156 43.3553 96.0156C40.1355 96.0156 36.9074 96.0983 33.6752 96.09C30.1206 96.0735 26.5784 96.0404 23.0238 96.0156C22.6518 96.0115 22.2839 96.0115 21.9119 96.0115C21.8912 95.8627 21.9202 95.7098 21.8788 95.5651C21.6102 94.5731 20.9943 93.9201 20.1759 93.3414C19.7998 93.081 19.4361 92.8165 19.0724 92.5478C17.4314 91.1756 15.8939 89.7207 14.5175 88.0715C13.2114 86.3149 12.0127 84.4467 10.8637 82.5908C9.71465 80.7474 8.44161 78.9287 7.51989 76.953C7.28429 76.3289 7.0859 75.6924 6.94537 75.0394C6.92883 74.7707 6.9247 74.502 6.93297 74.2292C7.0363 73.7539 7.17683 73.291 7.3339 72.8322C7.73069 72.0386 8.21015 71.2988 8.73094 70.5754C9.55346 69.5834 10.4462 68.6535 11.3432 67.7152C11.959 67.0663 12.6203 66.4628 13.2693 65.8428C13.3354 67.1531 13.4222 68.4633 13.4594 69.7736C13.5173 71.6625 15.0011 73.2455 16.9396 73.2455C18.783 73.2455 20.4859 71.6625 20.4115 69.7736C20.2834 66.3099 19.8742 62.871 19.7626 59.4115C19.6965 57.6177 19.6882 55.828 19.6799 54.0259C19.6717 52.5503 19.6923 51.0664 19.8246 49.595C19.9734 48.7559 20.1553 47.9417 20.4115 47.1316C20.5562 46.8629 20.7133 46.6066 20.8827 46.3545C20.9075 46.3297 20.9282 46.3049 20.953 46.2843C21.2588 46.0817 21.5688 45.8957 21.8954 45.7263C22.1227 45.6601 22.3459 45.6023 22.5732 45.5527C22.6683 45.5485 22.7675 45.5527 22.8626 45.5527C22.8212 48.4294 22.7592 51.3103 22.7592 54.187C22.7592 56.2082 24.4456 57.8946 26.4585 57.8946C28.4631 57.8946 30.1908 56.2082 30.166 54.187C30.1247 50.5291 29.9966 46.8629 29.9635 43.2008C29.9387 39.762 30.0792 36.3231 30.2074 32.8884C30.2818 31.2103 30.2652 29.5197 30.3686 27.8499C30.4595 26.2173 30.6786 24.6053 30.8397 22.9809C31.1456 19.9636 31.0919 16.934 31.4225 13.9167C31.6829 12.1931 32.0839 10.5233 32.708 8.89891C32.9518 8.36985 33.2288 7.86146 33.547 7.37374C33.5966 7.32414 33.6462 7.27041 33.7 7.22081C33.9314 7.07201 34.1712 6.93561 34.415 6.81161C34.8159 6.68762 35.2127 6.59668 35.6261 6.52229C36.1386 6.47682 36.6428 6.46442 37.1595 6.48509C37.4778 6.55122 37.7878 6.62975 38.1019 6.72895C38.1722 6.76615 38.2383 6.80748 38.3044 6.84881C38.4822 7.00588 38.6475 7.16707 38.8087 7.3448C38.9864 7.64653 39.1517 7.94826 39.3047 8.26239C39.6808 9.3701 39.9288 10.4985 40.1272 11.6517C40.4827 14.888 40.495 18.1615 40.3504 21.4103C40.2057 24.7789 40.0983 28.1516 40.1313 31.5285C40.1727 34.8558 40.3917 38.1913 40.495 41.5145C40.5446 43.176 40.5694 44.85 40.6232 46.5116C40.648 47.2638 40.681 48.0285 40.7224 48.7931C40.7637 49.5702 40.8918 50.3514 40.9166 51.1284C40.9662 52.9801 42.417 54.5301 44.3142 54.5301C46.0998 54.5301 47.7944 52.9801 47.7035 51.1284C47.658 50.1365 47.3852 49.1982 47.1951 48.2352C47.0504 46.7554 47.0628 45.2799 47.0463 43.796C47.0463 43.7754 47.0463 43.7547 47.0463 43.734C47.6993 43.734 48.3524 43.7051 49.0054 43.7506C49.1584 43.8415 49.3072 43.9324 49.456 44.0275C49.8776 44.3995 50.2619 44.7921 50.6215 45.2137C50.977 45.7511 51.287 46.2925 51.5598 46.867C52.0103 48.1029 52.3162 49.3594 52.5476 50.6531C52.7708 52.6205 52.8742 54.6169 52.808 56.5967C52.7502 58.3575 54.3249 59.8331 56.0361 59.8331C57.8382 59.8331 59.2146 58.3575 59.2642 56.5967C59.322 54.8194 59.2724 53.0339 59.1526 51.2648C59.0493 49.7727 58.793 48.2434 58.4086 46.7637C58.7599 46.6976 59.1113 46.6149 59.4667 46.5488C59.632 46.5364 59.7974 46.5322 59.9668 46.524C60.2148 46.5818 60.4546 46.6521 60.6984 46.7306C60.9919 46.8836 61.2771 47.0489 61.554 47.2349C62.0748 47.6937 62.546 48.2021 63.0007 48.7311C63.9596 50.0786 64.716 51.5211 65.3814 53.0339C65.7327 53.9639 65.9601 54.9434 66.1461 55.9148C66.485 59.2131 66.2411 62.4784 66.0593 65.785Z" fill="#111918"/>
</svg>
