<svg width="124" height="66" viewBox="0 0 124 66" fill="none" xmlns="http://www.w3.org/2000/svg">
<path d="M101.334 33.3748C101.156 32.1844 100.95 31.0065 100.648 29.841C100.33 28.6506 99.904 27.481 99.5857 26.2906C98.9781 23.9637 98.2507 21.6202 97.329 19.3966C96.9777 18.5493 96.6099 17.8756 95.7874 17.3962C95.7833 17.3921 95.775 17.3962 95.7709 17.3921C95.5146 17.0697 95.2129 16.7804 94.8327 16.582C93.8159 16.0529 92.824 15.528 91.7039 15.2553C90.3441 14.9287 88.9926 14.5444 87.6493 14.1683C86.0085 13.7054 84.3305 13.4408 82.669 13.0895C80.9661 12.7299 79.2881 12.3538 77.5604 12.1554C74.2085 11.7711 70.8442 11.3784 67.4674 11.2586C65.6902 11.1883 63.9254 11.1718 62.1481 11.1635C61.3298 11.1594 60.5073 11.1428 59.6889 11.1428C58.8706 11.1428 58.0481 11.1594 57.2297 11.2296C53.5513 11.5272 49.8811 11.8289 46.1944 12.0438C44.1774 12.1554 42.1811 12.5811 40.189 12.9242C39.3252 13.0689 38.4613 13.2135 37.6058 13.4036C36.8825 13.5648 36.1716 13.7467 35.4442 13.8707C34.2952 14.0112 33.1338 14.1228 32.022 14.441C30.8069 14.7841 29.5752 15.0486 28.3435 15.3297C27.2069 15.59 26.4299 16.5159 26.0827 17.5822C25.719 18.0038 25.4173 18.4543 25.2644 18.9957C23.9831 22.0335 22.9994 25.2078 22.4828 28.4729C22.0116 31.4074 21.6851 34.3254 21.5239 37.2929C21.4578 38.5246 21.3958 39.7563 21.4578 40.9797C21.5281 42.604 21.7471 44.2489 22.0116 45.8484C22.1645 46.7701 22.3712 47.7042 22.6688 48.5846C23.0036 49.5765 23.5243 50.4155 24.0038 51.3372C24.7105 52.6804 26.4134 53.2963 27.8434 52.9367C29.6744 53.193 31.5095 53.4161 33.3652 53.4905C34.8408 53.5525 36.3328 53.5319 37.8083 53.6765C38.5068 53.7799 39.2094 53.8749 39.9079 53.9369C40.5155 53.9865 41.1148 53.9948 41.7224 54.032C42.2514 54.0733 42.768 54.1353 43.2971 54.1601C43.9873 54.1932 44.6693 54.1766 45.3512 54.2386C46.0373 54.3378 46.7275 54.4246 47.4219 54.4949C47.86 54.5445 48.3022 54.5693 48.7404 54.5197C49.724 54.4081 50.7862 54.2634 51.6335 53.6972C52.3609 53.2095 52.8239 52.6102 53.4314 52.0109C53.8571 51.5934 54.3035 51.1967 54.7044 50.7462C55.0805 50.3287 55.407 49.8823 55.7914 49.4732C56.1593 49.0723 56.5023 48.6589 56.8536 48.2498C57.0024 48.0803 57.1347 47.9026 57.2752 47.729C57.5852 47.6629 57.8952 47.605 58.2093 47.5554C59.6889 47.3612 61.1934 47.1793 62.6854 47.1876C63.1566 47.1958 63.6443 47.171 64.1237 47.1545C64.9462 47.1173 65.7687 47.0842 66.5788 47.1586C67.3972 47.2785 68.2155 47.386 69.038 47.4851C69.1124 47.6422 69.1827 47.7993 69.2488 47.9522C69.4637 48.4895 69.6704 49.0268 69.9597 49.5269C70.1663 49.8865 70.4309 50.2213 70.6871 50.5519C71.3608 51.4488 72.1006 52.2713 72.7991 53.1516C73.1835 53.6311 73.5679 54.0237 74.1093 54.3502C74.9731 54.871 75.932 55.0157 76.9157 55.0611C78.2093 55.1272 79.5154 55.1107 80.8091 55.1562C84.0701 55.2843 87.3352 55.3422 90.5962 55.3091C91.8444 55.3008 93.1009 55.2843 94.345 55.181C95.2005 55.1107 96.0643 55.0115 96.9033 54.8545C97.5357 54.7346 98.1433 54.4784 98.7508 54.28C99.2385 54.1188 99.7262 53.9534 100.173 53.6972C101.632 52.8788 102.119 51.0065 101.429 49.5352C101.615 49.2458 101.768 48.9441 101.809 48.6383C102.008 47.2165 102.21 45.8319 102.219 44.4019C102.219 43.2653 102.202 42.1287 102.148 41.0045C102.033 38.4378 101.702 35.9083 101.334 33.3748ZM77.9572 48.039C77.949 48.0307 77.9407 48.0266 77.9324 48.0183C77.9407 48.0225 77.949 48.0307 77.9572 48.039ZM91.8858 48.6465C90.5094 48.6465 89.1249 48.6961 87.7527 48.6714C84.657 48.6176 81.5365 48.4978 78.4532 48.1464C78.354 48.1299 78.2589 48.1092 78.1597 48.0844C77.577 47.4851 77.0397 46.8239 76.523 46.1626C75.9609 45.3814 75.6055 44.4597 75.1756 43.6042C74.8574 42.9635 74.4978 42.4676 74.0225 41.9013C73.5183 41.2938 72.8074 40.9797 72.0965 40.711C71.7162 40.5581 71.2947 40.5498 70.8855 40.5167C70.4391 40.4547 69.9927 40.3969 69.5464 40.339C69.6786 40.3597 69.8068 40.3762 69.9349 40.3928C68.4387 40.2109 66.9342 40.1282 65.4298 40.1282C64.0824 40.1282 62.7392 40.1944 61.4 40.3225C60.2882 40.4258 59.1682 40.5044 58.0481 40.6035C57.5191 40.6449 56.9942 40.6821 56.4651 40.7317C55.9939 40.7813 55.5145 40.8515 55.0433 40.9301C54.4978 41.0169 54.0183 41.2483 53.5058 41.4839C52.8197 41.7856 52.332 42.4428 51.8567 43.0049C51.4145 43.5298 51.0094 44.0836 50.6085 44.6416C50.1869 45.1706 49.7488 45.6955 49.2983 46.1915C48.9883 46.5345 48.6288 46.8486 48.2898 47.1752C48.17 47.2909 48.0543 47.4149 47.9344 47.5347C47.1037 47.5802 46.2605 47.5099 45.4339 47.4769C44.818 47.4521 44.2022 47.4603 43.5946 47.4603C42.8424 47.4686 42.0902 47.4686 41.3462 47.419C39.8666 47.3322 38.3952 47.1545 36.9156 47.076C34.9689 46.9602 33.0346 46.7619 31.1003 46.5593C30.5217 46.4767 29.9472 46.3899 29.3768 46.3031C29.3024 46.2907 29.2404 46.3031 29.166 46.2907C28.8602 45.3814 28.6618 44.4101 28.513 43.4595C28.1617 39.9836 28.4055 36.4787 28.8023 33.0152C28.9883 31.6802 29.1825 30.3411 29.4388 29.0226C29.6165 28.0637 30.0133 27.1255 30.3357 26.208C30.687 25.1788 31.059 24.158 31.4434 23.1288C31.6252 22.6948 31.8112 22.265 32.0013 21.8351C32.0757 21.6657 32.1005 21.5045 32.1584 21.3392C32.8073 21.1532 33.4603 20.9713 34.1175 20.8019C35.4111 20.4588 36.7544 20.3224 38.0687 20.0827C39.412 19.843 40.7469 19.5454 42.0902 19.285C43.3219 19.0412 44.5742 18.8593 45.8224 18.6857C48.2361 18.4377 50.6622 18.3303 53.0718 18.1112C55.4938 17.8963 57.9034 17.95 60.3337 17.9335C62.9251 17.917 65.5083 17.95 68.0915 18.0368C70.4598 18.1071 72.8363 18.3799 75.188 18.6899C77.9862 19.1156 80.7677 19.7603 83.541 20.3472C84.9422 20.6448 86.302 21.0581 87.6824 21.426C88.5958 21.6698 89.5092 21.8971 90.3896 22.2195C90.7368 22.3725 91.0963 22.5047 91.4477 22.6452C92.1296 24.3605 92.7537 26.117 93.1918 27.9025C93.7415 30.122 94.3987 32.2919 94.75 34.5527C94.9938 36.5076 95.2088 38.4667 95.2377 40.4424C95.2584 42.4882 95.3369 44.5465 95.1178 46.5841C95.1054 46.6503 95.0972 46.7164 95.0848 46.7825C94.9814 47.4066 95.0104 47.977 95.1344 48.5391C95.1096 48.5432 95.0848 48.5515 95.06 48.5556C94.0102 48.6424 92.9397 48.6548 91.8858 48.6465ZM68.2775 64.6334C68.3643 64.6458 68.4552 64.6416 68.542 64.654C68.7611 64.6788 68.9843 64.7284 69.1827 64.7532C68.8768 64.7119 68.5751 64.6706 68.2775 64.6334ZM64.8222 53.1186C64.7065 53.102 64.6073 53.1062 64.4957 53.0938C64.2973 53.069 64.1031 53.0235 63.9047 52.9987C64.2147 53.0359 64.5205 53.0772 64.8222 53.1186ZM123.744 35.1975C123.616 33.6558 123.554 32.1018 123.446 30.5519C123.376 29.6178 123.268 28.6878 123.149 27.762C123.02 26.8321 122.764 26.084 122.388 25.2202C122.07 24.4845 121.549 23.7901 120.908 23.3024C120.243 22.7816 119.718 22.4138 118.883 22.1823C118.42 22.0625 117.933 22.0211 117.47 21.9674C117.073 21.9178 116.672 21.8971 116.271 21.8971C115.32 21.8971 114.37 22.0087 113.432 22.0873C112.952 22.1327 112.481 22.1906 112.01 22.2485C111.299 22.3311 110.708 22.5336 110.15 22.8808C109.642 21.4177 109.088 19.9753 108.6 18.4956C107.914 16.4001 107.41 14.2261 106.794 12.0976C106.505 11.0974 105.756 10.3451 104.847 9.98556C104.587 9.34493 104.128 8.81176 103.52 8.37779C103.041 8.03474 102.45 7.84875 101.896 7.62556C101.495 7.46437 101.09 7.29905 100.689 7.12959C100.937 7.23292 101.177 7.33625 101.425 7.43957C99.9122 6.79894 98.3789 6.30297 96.8124 5.82353C95.3493 5.36889 93.8779 4.94319 92.39 4.60014C90.8318 4.24883 89.2488 3.98431 87.6948 3.61646C86.1036 3.24035 84.5206 2.84771 82.9376 2.46333C79.5485 1.62431 76.0353 1.19033 72.5635 0.805957C69.2116 0.429845 65.8638 0.223187 62.4953 0.0785291C61.2843 0.0247988 60.0733 0 58.8623 0C57.6017 0 56.3411 0.0247994 55.0805 0.0702635C52.4891 0.165325 49.9018 0.545572 47.3351 0.905152C43.0904 1.45485 38.8251 1.83096 34.5804 2.3972C32.0674 2.74024 29.5711 3.14116 27.0664 3.62059C24.756 4.06697 22.4787 4.69933 20.2137 5.33996C19.4202 5.56315 18.7961 6.08805 18.3621 6.73282C17.7835 7.01387 17.2751 7.42718 16.9527 8.02234C15.1052 11.4115 13.5057 14.9329 12.4807 18.6651C12.3898 18.9957 12.3112 19.3346 12.2244 19.6653C11.8566 19.5372 11.4888 19.4545 11.1085 19.4545C10.7861 19.4545 10.4514 19.4917 10.1083 19.5537C9.50487 19.6529 8.90971 19.7686 8.30627 19.8761C7.31846 19.9711 6.31412 20.0207 5.38004 20.3679C4.42116 20.7192 3.83013 21.0581 3.05311 21.6698C2.22235 22.327 1.77185 23.2445 1.4288 24.2199C1.18908 24.9102 1.09402 25.6748 0.990692 26.394C0.874965 27.1916 0.792304 27.9935 0.693109 28.7953C0.519519 30.0063 0.296332 31.2131 0.139274 32.4324C-0.00538435 33.5029 -0.00538432 34.5527 0.00288188 35.6314C0.0111481 37.5657 0.250868 39.4793 0.283932 41.4054C0.292198 41.7401 0.283933 42.0749 0.300465 42.4138C0.350062 43.4388 0.564983 44.1828 0.986559 45.0921C1.32961 45.8526 1.89997 46.5139 2.44968 47.1297C3.56974 48.3944 5.11139 48.6176 6.68197 48.7871C7.52925 48.8739 8.3848 48.9937 9.24035 49.0433C10.0711 49.0929 10.8275 48.7292 11.4061 48.1795C11.464 48.4399 11.497 48.7044 11.559 48.9648C11.8855 50.3411 12.4146 51.7092 12.9353 53.0194C13.5346 54.561 14.1505 56.1068 14.8076 57.6278C15.6549 59.6117 16.4857 61.8518 18.0562 63.3934C18.8663 64.1829 19.9905 64.4308 21.0362 64.2325C21.4702 64.4308 21.9372 64.5672 22.4373 64.6003C25.6611 64.7987 28.8767 65.0301 32.0964 65.0467C35.2375 65.0549 38.3663 64.8731 41.5074 64.7036C44.2518 64.559 47.0086 64.5838 49.7612 64.4308C50.7118 64.3812 51.6583 64.3441 52.6172 64.3647C53.047 64.373 53.4893 64.3978 53.9274 64.3812C54.8863 64.3399 55.6385 64.1498 56.4858 63.7241C57.4612 63.2364 58.2837 62.3974 59.1103 61.6947C59.722 61.1781 60.28 60.6036 60.8751 60.0663C60.9082 60.0456 60.9371 60.0291 60.9702 60.0084C61.214 59.9382 61.462 59.8844 61.71 59.8431C62.1936 59.7935 62.6813 59.7687 63.1649 59.7852C63.3385 59.8266 63.5038 59.8762 63.6732 59.934C63.6774 59.934 63.6815 59.9382 63.6856 59.9382C63.822 60.182 63.9419 60.4341 64.0576 60.6863C64.2973 61.3062 64.5164 61.9427 64.8801 62.4883C65.5662 63.505 66.4631 64.1291 67.6327 64.5052C67.9179 64.5962 68.232 64.6127 68.5462 64.6458C70.125 64.84 71.6832 64.8483 73.2786 64.8566C74.8367 64.8566 76.3908 64.9433 77.949 65.0384C79.6601 65.15 81.3794 65.1335 83.0905 65.1169C84.5867 65.1087 86.0746 65.0921 87.5625 65.1583C89.0091 65.2244 90.464 65.3897 91.9147 65.3567C93.4811 65.3236 95.0435 65.1004 96.6099 65.0053C98.0193 64.9186 99.4245 64.8442 100.826 64.716C101.665 64.6375 102.504 64.5631 103.33 64.4143C103.843 64.3275 104.347 64.1746 104.851 64.0465C105.236 63.9431 105.628 63.877 106.013 63.7654C106.624 63.5877 107.108 63.2074 107.513 62.7569C108.86 62.9884 110.303 62.418 111.005 61.1781C112.427 58.6693 112.878 55.7389 113.308 52.916C113.469 51.8497 113.551 50.7751 113.667 49.7046C114.225 50.1551 114.982 50.5436 115.672 50.4527C118.676 50.0766 122.686 50.2213 123.711 46.6379C124.029 45.5095 123.864 44.2159 123.934 43.0545C124.087 40.4341 123.954 37.822 123.744 35.1975ZM7.71937 42.451C7.57885 42.4304 7.43832 42.4056 7.30193 42.3766C7.28127 42.3353 7.2606 42.2981 7.2358 42.2568C7.22754 42.2279 7.21927 42.1989 7.211 42.17C7.1862 41.6327 7.20687 41.0913 7.19447 40.5622C7.16967 39.5455 7.12421 38.5329 7.04155 37.5244C6.88449 35.5198 6.88035 33.4988 7.11594 31.4983C7.27713 30.3907 7.43832 29.2871 7.57885 28.1795C7.66151 27.7124 7.7607 27.2454 7.88883 26.7866C7.97976 26.7618 8.07069 26.737 8.16161 26.7163C9.01717 26.6337 9.86858 26.5345 10.7241 26.4394C10.6043 27.3115 10.5051 28.1877 10.4059 29.0639C10.0463 32.2134 9.83965 35.3834 9.95951 38.5494C10.0174 39.9546 10.2116 41.364 10.4224 42.7693C10.0546 42.6205 9.6578 42.5254 9.24035 42.5172C8.73198 42.5048 8.22361 42.4965 7.71937 42.451ZM63.3591 59.7852C63.3013 59.7604 63.2475 59.7356 63.1897 59.7109C63.2475 59.7398 63.3054 59.7646 63.3591 59.7852ZM70.4598 58.1403C70.5053 58.1444 70.5466 58.1527 70.592 58.1568C70.5879 58.1568 70.5838 58.1568 70.5796 58.1568C70.621 58.1609 70.6664 58.1692 70.7078 58.1733C70.6251 58.1609 70.5425 58.1485 70.4598 58.1403ZM103.384 57.8427C102.169 58.2725 100.929 58.5742 99.6642 58.7809C98.6888 58.8925 97.701 58.9214 96.7173 58.9628C95.494 59.0289 94.2706 59.1074 93.0389 59.1777C91.8568 59.2479 90.6789 59.1529 89.4968 59.0578C88.3065 58.9628 87.1079 58.9214 85.9052 58.8966C83.322 58.847 80.7388 58.7106 78.1639 58.5618C76.9487 58.4916 75.7419 58.3924 74.5268 58.3469C73.3034 58.2932 72.0634 58.3056 70.8442 58.1816C70.7119 58.1609 70.5796 58.1403 70.4474 58.1155C70.4185 58.0493 70.3895 57.9791 70.3606 57.9088C70.3565 57.8964 70.3482 57.884 70.3441 57.8716C69.8729 56.7557 69.3687 55.6687 68.4098 54.871C67.8973 54.4412 67.3765 54.0568 66.7689 53.784C66.3308 53.5897 65.8803 53.3748 65.4091 53.2384C65.1116 53.1558 64.8057 53.131 64.4957 53.0938C63.9295 53.0235 63.3798 52.9656 62.8301 52.9656C62.5242 52.9656 62.2184 52.978 61.896 53.0111C60.8958 53.1144 59.8253 53.1723 58.8747 53.5071C57.7009 53.9163 56.7792 54.561 55.8989 55.4331C55.407 55.9167 54.9813 56.425 54.4606 56.8714C54.134 57.1153 53.7951 57.3467 53.4397 57.5451C53.3612 57.5699 53.2785 57.5906 53.1958 57.6071C51.6418 57.7476 50.0753 57.7146 48.5254 57.7848C45.7893 57.913 43.0573 58.1692 40.3212 58.3428C37.4363 58.5164 34.5308 58.6858 31.6376 58.566C28.5584 58.4379 25.5124 58.008 22.4415 57.7807C22.3671 57.7766 22.3009 57.8179 22.2265 57.8179C21.8628 57.1483 21.5074 56.4622 21.2222 55.7844C21.3049 55.9745 21.3793 56.1688 21.4578 56.3589C21.0775 55.4538 20.6684 54.5651 20.2757 53.6641C18.7547 49.7956 17.552 45.7699 16.9238 41.6575C16.775 40.3721 16.6469 39.0908 16.5683 37.7972C16.4898 36.5159 16.5353 35.2305 16.5601 33.9493C16.5973 31.4074 16.9279 28.8862 17.2462 26.3692C17.4569 25.059 17.7711 23.786 18.1348 22.5047C18.5646 20.9961 18.9573 19.4504 19.54 17.9872C20.4989 15.7719 21.6314 13.6516 22.8134 11.5479C25.1982 10.8411 27.5872 10.1468 30.005 9.56812C32.4353 8.98535 34.8614 8.55138 37.3289 8.18353C40.284 7.79916 43.2309 7.44371 46.1944 7.17506C49.4347 6.88574 52.6627 6.49723 55.9113 6.4063C59.0152 6.31951 62.1233 6.44763 65.2273 6.61296C68.323 6.78241 71.4104 7.05933 74.4854 7.44784C76.3949 7.73716 78.3044 8.04301 80.2056 8.43152C82.3011 8.86136 84.3718 9.3904 86.4673 9.84091C88.5297 10.279 90.6004 10.6469 92.6504 11.1842C93.7043 11.4652 94.7541 11.7752 95.8081 12.0562C96.6884 12.2877 97.5853 12.5026 98.4326 12.8498C98.4037 12.8374 98.3747 12.825 98.3458 12.8126C98.755 12.9862 99.16 13.1556 99.5692 13.3292C99.3212 13.2259 99.0732 13.1226 98.8252 13.0193C99.2551 13.2011 99.6891 13.3871 100.082 13.631C100.268 13.7632 100.466 13.85 100.664 13.9409C101.289 16.0529 101.925 18.165 102.619 20.2563C103.244 22.1286 103.884 23.9761 104.434 25.8691C104.979 27.7744 105.529 29.6674 106.042 31.581C106.484 33.2136 106.715 34.8916 106.938 36.5655C107.257 39.0908 107.393 41.612 107.447 44.1539C107.509 46.58 107.356 48.9648 107.042 51.3744C106.773 53.2054 106.447 55.0322 105.831 56.7763C105.719 56.9954 105.575 57.1979 105.438 57.4046C104.777 57.3509 104.103 57.4831 103.475 57.8014C103.442 57.8096 103.413 57.8262 103.384 57.8427ZM116.804 42.604C116.788 42.9966 116.755 43.3934 116.742 43.7902C116.618 43.8191 116.49 43.8439 116.366 43.8687C116.131 43.8894 115.895 43.91 115.659 43.9307C115.006 43.9844 114.44 44.1869 113.923 44.5093C113.919 43.9266 113.94 43.3479 113.94 42.7651C113.923 41.1656 113.878 39.5744 113.717 37.9832C113.547 36.2018 113.291 34.4246 113.022 32.6556C112.836 31.4529 112.535 30.2832 112.196 29.1218C113.204 28.9895 114.213 28.849 115.221 28.7126C115.606 28.6672 115.986 28.63 116.366 28.6217C116.387 28.7209 116.407 28.8242 116.428 28.9234C116.573 30.3617 116.614 31.8083 116.684 33.2466C116.771 35.0073 116.829 36.7639 116.854 38.5163C116.858 39.8844 116.85 41.2442 116.804 42.604Z" fill="#111918"/>
</svg>
