<svg width="91" height="102" viewBox="0 0 150 150" fill="none" xmlns="http://www.w3.org/2000/svg"><path d="M8.81411 104.431C5.92774 95.0125 7.28789 85.0905 6.07283 75.4552C5.03852 67.2623 3.13394 23.1352 9.72649 16.6025C21.484 4.95083 108.876 -1.49055 121.199 14.7921C130.148 26.6144 128.508 49.7965 128.508 63.6852C128.508 78.6863 132.019 101.858 120.284 113.485C102.628 130.982 38.9936 129.336 15.2089 123.445" stroke="black" stroke-opacity="0.9" stroke-width="9.10329" stroke-linecap="round" stroke-linejoin="round"/>
<path d="M5.73853 53.9693C14.6845 50.8588 40.2004 55.8742 41.1916 53.7861C43.6904 48.5204 50.1014 37.5379 65.7995 34.5218C76.8213 32.4042 93.2328 34.5218 98.5173 45.3092C124.463 98.2727 69.6126 113.864 53.9498 105.451C40.0935 98.0087 41.1916 87.9331 41.1916 80.0559" stroke="black" stroke-opacity="0.9" stroke-width="9.10329" stroke-linecap="round" stroke-linejoin="round"/>
<path d="M61.5346 58.1038C64.4869 54.8585 70.5525 50.5202 75.2623 51.6974C90.1058 55.4081 89.8572 84.2905 74.3463 87.3942C59.7811 90.3067 48.8013 69.0476 61.5346 62.6799" stroke="black" stroke-opacity="0.9" stroke-width="9.10329" stroke-linecap="round" stroke-linejoin="round"/>
<path d="M107.597 53.7145C111.432 53.1842 123.786 53.6377 127.525 52.9766" stroke="black" stroke-opacity="0.9" stroke-width="9.10329" stroke-linecap="round" stroke-linejoin="round"/>
<path d="M112.394 31.6928C112.394 31.3651 112.394 31.0396 112.394 30.7119" stroke="black" stroke-opacity="0.9" stroke-width="9.10329" stroke-linecap="round" stroke-linejoin="round"/>
</svg>
