
<svg width="91" height="102" viewBox="0 0 91 150" fill="none" xmlns="http://www.w3.org/2000/svg"><path d="M78.1253 25.305C77.4803 25.845 77.4953 28.365 75.6803 28.23C75.0203 28.185 72.5903 26.295 72.2753 25.695C71.7353 24.66 72.0203 23.67 72.9353 23.01C73.7603 22.41 77.3303 21.525 78.5153 21.255C79.4753 21.03 80.5553 20.625 81.4403 21.21C82.5053 21.915 82.3403 23.535 81.3203 24.21C80.6003 24.69 78.6203 24.9 78.1253 25.305Z" fill="black"/>
<path d="M94.5953 48.285C96.5453 50.01 93.0203 52.365 91.6253 52.95C90.2303 53.535 89.6003 52.89 89.0903 51.675C88.7453 50.82 88.5803 50.31 89.0453 49.455C89.7653 48.15 91.1003 48.57 92.1953 48.39C92.9753 48.27 93.6053 47.43 94.5803 48.285H94.5953Z" fill="black"/>
<path d="M88.9552 132.075C90.5002 133.35 91.7452 135 93.3352 136.215C95.0002 135.45 96.4252 131.04 98.5552 133.335C101.705 136.74 104.945 141.81 102.68 146.52C100.685 150.66 97.7002 147.21 95.0452 147.315C93.7852 147.36 92.6752 148.665 91.3252 148.53C89.9752 148.395 85.4302 145.32 83.7502 144.525C82.9402 144.15 78.9652 142.68 78.6802 142.395C78.1702 141.87 78.0352 139.995 78.3652 139.41C78.5602 139.08 79.1602 138.96 79.1752 138.645C77.3902 134.715 80.9002 130.665 84.8752 130.44C86.7052 130.335 87.6202 130.965 88.9552 132.06V132.075ZM82.1452 140.595C85.4152 141.84 88.4302 143.67 91.4602 145.41C92.2402 145.245 92.8552 144.705 93.6352 144.525C95.9152 143.97 97.5652 144.915 99.6952 145.44C101.825 142.38 99.1552 139.095 97.2202 136.71C96.3202 137.49 94.6102 140.145 93.3352 139.995C93.0952 139.965 92.5402 139.605 92.3002 139.455C90.4402 138.225 88.5202 135.585 86.6752 134.13C86.3752 133.89 85.8652 133.485 85.4902 133.425C84.6502 133.32 83.1052 134.07 82.5352 134.67C80.5552 136.725 83.3752 138.345 82.1602 140.595H82.1452Z" fill="black"/>
<path d="M107.42 130.335C110.21 130.08 112.34 131.235 113.42 133.785C114.71 136.8 114.59 138.675 112.985 141.525C112.25 142.83 111.68 143.085 110.81 144.03C109.49 145.47 110.075 148.305 109.25 150.135C108.935 150.825 108.335 151.65 107.54 151.71C105.155 151.89 105.845 149.79 105.74 148.185C105.485 144.36 105.815 139.125 103.31 136.08C102.095 134.61 99.1103 133.605 101.72 131.505C103.55 131.22 105.62 130.5 107.42 130.335ZM108.395 142.005C109.67 141.81 111.35 138.255 111.335 137.235C111.335 136.83 110.63 134.835 110.405 134.445C109.46 132.915 106.805 133.29 105.425 133.95C107.405 136.2 108.245 139.035 108.395 142.005Z" fill="black"/>
<path d="M120.695 124.725C121.76 124.725 123.35 125.145 124.175 125.85C126.095 127.47 127.325 131.25 124.97 133.035C122.615 134.82 120.695 131.385 118.55 132.09C117.845 132.315 117.83 133.08 116.525 132.9C113.66 132.48 113.15 125.895 116.48 125.19C117.35 125.01 119.78 124.755 120.695 124.74V124.725ZM123.245 130.125C123.02 129.255 122.48 128.085 121.535 127.845C121.055 127.725 119.225 127.875 118.64 127.935C117.665 128.025 117.11 128.025 117.305 129.18C118.25 129.105 119.225 128.91 120.185 129.03C121.28 129.18 122.165 130.02 123.245 130.11V130.125Z" fill="black"/>
<path d="M91.9403 128.91C95.8403 128.01 95.8703 134.88 92.0303 133.44C90.0803 132.72 89.9903 129.36 91.9403 128.91Z" fill="black"/>
<path d="M111.89 102.99C110.915 103.935 110.195 105.66 109.955 106.995C112.175 107.235 113.96 107.055 115.94 108.285C119.975 110.79 120.08 117.03 115.535 118.905C113.6 119.7 112.13 119.025 110.39 119.385C109.565 119.55 108.875 120.615 108.245 121.14C109.685 121.44 111.38 121.905 111.755 123.555C112.25 125.745 110.51 127.35 108.56 127.86C106.115 128.49 101.375 129.495 98.9752 129.15C95.8102 128.7 92.4502 124.935 97.2952 124.035C97.2652 123.27 96.3202 122.91 96.3352 122.025C95.4952 121.95 94.6402 122.07 93.8002 121.995C91.2802 121.725 89.6602 120.48 86.7502 120.765C85.7602 120.855 84.6052 121.545 83.6452 121.05C82.5352 120.48 83.0602 119.4 82.8502 118.41C82.4152 116.445 80.1952 115.755 80.6152 113.22C80.8852 111.585 82.8352 111.555 82.4152 109.935C82.0552 108.57 79.1002 107.94 79.5052 105.225C79.5952 104.595 80.1652 104.19 79.8802 103.575C79.5652 102.915 77.2252 101.865 76.4452 101.22C75.5452 100.455 74.5102 99.045 75.8152 98.1C76.1602 97.845 76.7752 97.95 76.6852 97.485C74.1802 97.59 73.5202 94.845 75.9802 94.035C77.6302 93.495 78.9352 94.32 80.3752 94.365C81.2752 94.395 82.1752 93.9 83.3452 94.05C83.7802 94.11 84.4552 94.545 84.7252 94.485C84.9202 94.44 85.9552 93.495 86.3302 93.285C86.6452 93.12 86.9752 93.15 87.2602 92.955C87.4552 91.725 87.5002 90.405 88.6852 89.685C89.0152 89.49 89.7202 89.385 89.9452 89.145C90.5902 88.515 90.5902 87.255 89.7352 86.715C87.9652 85.59 85.1752 86.085 83.5852 83.955C81.9952 81.825 84.1552 80.235 85.4902 81.375C85.7452 81.6 85.8202 81.99 86.0902 82.23C87.1102 83.13 89.8102 83.325 91.0852 83.64C92.4652 83.985 92.8102 84.72 94.6402 84.255C95.5702 84.015 96.0502 83.07 96.9502 82.965C99.2902 82.695 99.2302 86.175 98.5552 87.705C98.3302 88.23 97.3852 89.16 97.3402 89.325C97.2652 89.61 97.7902 90.45 97.7752 90.99C97.7602 91.71 97.2802 92.34 96.8752 92.91L97.4752 94.53C97.9102 94.38 97.7452 93.795 97.8502 93.435C98.3002 91.95 98.6602 92.16 99.3352 91.17C100.385 89.64 98.1202 87.675 100.37 86.58C104.42 84.6 107.75 91.185 106.55 94.485C106.265 95.28 105.545 96.045 104.96 96.645C106.505 97.77 107.855 97.155 108.065 95.22C108.245 93.57 107.345 89.955 106.55 88.485C106.16 87.765 105.515 87.135 105.14 86.46C104.915 86.055 104.945 85.425 104.57 85.155C104.045 84.765 101.975 84.75 101.165 84.495C98.8102 83.775 98.4652 81.735 100.595 80.4C101.45 79.86 103.865 78.9 104.915 78.465C108.77 76.905 115.58 75.39 118.52 79.32C120.8 82.35 118.685 83.91 119.03 86.775C119.24 88.545 120.635 91.2 121.25 93C121.52 93.78 121.625 96.03 122.93 95.235C123.26 95.04 123.74 93.015 124.82 92.43C125.48 92.085 126.455 92.19 126.845 92.88C127.31 93.69 127.085 96.105 126.62 96.9C126.245 97.545 125.69 97.665 125.36 98.13C125.045 98.58 124.94 99.3 124.685 99.795C124.055 100.965 121.835 103.2 120.5 103.425C118.13 103.83 117.965 102.645 116.375 101.955C114.89 101.295 113 101.94 111.89 103.02V102.99ZM121.835 98.25C118.85 97.995 119 95.595 118.25 93.48C117.155 90.435 115.745 88.335 116.06 84.9C116.165 83.685 117.005 82.455 116.21 81.3C114.35 78.615 108.725 80.025 106.205 81.15L104.795 82.005C105.665 82.35 106.58 82.305 107.18 83.145C107.615 83.745 107.54 84.36 107.825 84.99C108.2 85.785 109.085 86.625 109.505 87.525C111.47 91.695 112.7 100.755 105.65 100.14C104.39 100.035 101.57 98.985 101.36 97.56C101.03 95.325 103.73 94.44 103.79 92.865C103.82 92.175 103.295 90.78 102.755 90.315C102.65 90.93 102.575 91.56 102.305 92.145C101.945 92.925 101 93.495 100.76 94.2C100.115 96.12 101.51 98.82 99.1552 99.78C98.2252 100.155 97.9852 100.065 97.1452 99.6C96.9352 99.495 96.8152 99.225 96.6502 99.15C95.8402 98.79 95.1952 99.12 94.4602 98.055C93.6052 96.81 94.7302 96.075 94.4602 94.86C93.2752 94.98 92.6902 94.38 92.7352 93.21C92.7802 92.1 93.9952 91.995 94.4152 91.11C94.4902 90.825 93.8452 90.045 93.8902 89.355C93.9052 89.04 94.1302 88.47 94.2952 88.185L95.1052 87.195L93.3952 87.51C93.3202 89.25 92.5252 92.04 90.4402 92.22C90.1852 93.36 90.3652 94.47 89.3602 95.325C88.8202 95.79 88.0252 95.865 87.4552 96.195C87.2002 96.345 87.0502 96.645 86.8102 96.795C85.8352 97.395 85.1452 97.695 83.9452 97.5C83.4352 97.425 83.1652 97.02 82.5352 97.02C81.9802 97.02 81.6052 97.41 81.0502 97.35C81.1252 97.83 81.3352 98.49 81.3052 98.97C81.2752 99.45 80.7802 100.02 80.9002 100.38C80.9302 100.47 81.9952 101.325 82.2652 101.685C83.1502 102.9 83.3902 104.34 82.6252 105.705C84.7702 107.49 86.7952 110.655 84.6352 113.22C84.3052 113.61 83.6452 113.82 83.7652 114.24C83.8252 114.495 84.7252 115.395 84.9802 115.845C85.3402 116.46 85.5952 117.105 85.7602 117.81C85.9702 117.945 89.0452 117.765 89.7052 117.84C91.1002 118.005 92.7802 118.845 94.1302 119.04C95.7352 119.28 97.9252 118.485 98.8852 120.06C99.3502 120.825 99.4552 121.035 99.9952 121.77C101 123.12 100.67 124.8 99.5452 125.955C99.3502 126.42 101.27 126.285 101.57 126.255C103.7 126.03 105.995 125.115 108.17 124.875L108.545 124.395C107.24 124.14 105.77 124.455 104.72 123.45C104.225 122.97 103.61 121.815 104 121.17L107.285 117.735C109.505 115.845 110.795 116.655 113.3 116.4C115.94 116.13 116.69 113.295 115.025 111.405C112.685 108.765 106.52 112.02 107 106.5C107.42 101.61 112.73 96.975 117.665 99.225C118.25 99.495 119.345 100.515 119.87 100.455C120.185 100.425 122.09 98.565 121.835 98.265V98.25Z" fill="black"/>
<path d="M80.0752 86.3999C80.9902 86.2949 81.1252 86.8349 81.6802 87.2249C82.6552 87.8849 83.4202 88.4849 83.9902 89.5949C84.8752 91.3049 82.9852 92.5349 81.4552 91.6649C80.7352 91.2599 80.8102 90.4649 80.3302 89.9849C79.9702 89.6249 79.4902 89.5799 79.1002 89.0249C78.3652 87.9749 78.7102 86.5649 80.0752 86.4149V86.3999Z" fill="black"/>
<path d="M59.1951 51.795C61.0851 52.56 61.8801 53.49 61.2651 55.575C61.1451 55.995 60.6201 56.325 61.1301 56.655C61.4751 56.88 62.8401 57.105 63.3051 57.135C66.9501 57.435 75.0651 55.575 76.5051 60.345C77.2401 62.775 76.3851 65.475 75.5001 67.755C74.6151 70.035 72.6201 74.745 71.3901 76.62C70.9251 77.34 70.1601 78.045 69.2451 78.045C68.6901 78.045 67.6251 77.445 67.2801 77.52C66.7551 77.64 66.0051 79.29 65.5101 79.8C64.4901 80.82 63.3351 81.03 62.0451 80.445C60.4551 79.725 60.2151 77.7 60.6351 76.17C60.8601 75.315 61.5201 74.46 61.7151 73.65C61.7601 73.455 61.9401 73.485 61.6101 73.245L57.2301 76.68C57.0351 77.055 58.2951 78.405 58.5351 78.81C60.4851 82.065 60.9951 86.985 59.2701 90.42C57.9651 93 56.1351 91.605 54.0951 91.38C53.2701 91.29 52.3701 91.41 51.5301 91.38C52.0251 91.995 53.0001 92.25 53.5551 92.865C54.5151 93.9 54.6501 95.58 54.4851 96.915C54.4101 97.56 53.9601 99.855 53.7501 100.395C53.3601 101.385 51.8001 101.535 50.8101 101.67C48.9651 101.94 47.1201 101.985 45.2751 101.685C46.2501 102.69 47.6151 103.17 47.9901 104.685C48.5301 106.98 44.5101 108.6 42.9351 109.425C43.2351 110.1 43.8201 110.685 43.8651 111.465C43.9101 112.365 43.3551 113.235 43.3251 114.015C43.2651 115.095 45.1701 117.255 45.6801 118.395C46.5501 120.315 46.4301 122.31 44.7351 123.72C44.2851 124.095 43.4601 124.44 43.0101 124.815C42.2751 125.43 42.8151 127.155 42.7851 128.1C44.3451 126.735 46.1151 125.91 48.0801 127.095C49.1001 127.695 54.2751 133.5 54.8151 134.58C55.8201 136.56 55.5801 139.095 52.8651 139.05C51.1551 139.02 49.6251 137.55 48.0501 137.82C46.5801 138.09 46.7001 139.935 45.2001 139.98C42.9651 140.04 44.4051 137.31 41.8851 138.375C40.0401 139.155 36.5601 141.99 34.7301 141.99C32.6451 141.99 32.8101 140.025 31.7901 139.455C31.0851 139.065 29.2851 139.02 28.3101 138.72C26.5551 138.165 24.8301 136.65 23.3001 136.215C20.6601 135.48 18.8451 137.88 16.3551 136.44C14.4201 135.33 14.3301 132.51 14.5101 130.515C14.6451 128.94 15.3651 127.455 15.4251 125.88C15.1401 125.94 15.1251 126.405 14.9151 126.615C13.7001 127.755 11.9001 125.985 11.3601 124.875C9.93514 121.905 12.6351 118.86 15.5301 120.705L15.8751 120.465C16.1301 118.215 16.1151 116.04 15.6951 113.805C15.5601 113.13 15.2601 111.825 14.9901 111.24C14.8101 110.85 14.0901 109.725 13.5501 110.01C12.8901 110.37 13.0401 113.91 11.4351 114.15C8.70513 114.57 9.06514 110.175 9.48514 108.54C6.33514 107.925 1.71513 109.11 1.08513 104.67C0.350137 99.54 4.31013 95.115 3.38013 89.565C3.27513 88.905 2.58513 88.485 2.40513 87.885C1.97013 86.505 3.05013 85.26 4.44513 85.845C4.53513 85.89 6.08013 86.955 6.15513 87.03C6.71013 87.645 6.21513 88.995 7.59513 88.68C7.70013 88.305 7.92514 87.915 7.92514 87.525C7.92514 87 6.96513 83.175 6.75513 82.44C6.65013 82.095 6.42513 81.855 6.35013 81.51C6.11013 81.345 4.62513 83.085 4.19013 83.325C3.08013 83.94 1.52013 83.715 1.23513 82.335C0.845137 80.505 1.22013 79.125 1.32513 77.37C1.46013 75.345 1.44513 73.185 1.67013 71.115C1.86513 69.255 1.86513 67.2 4.32513 67.755C3.36513 66.69 2.21013 66.015 1.55013 64.665C0.530137 62.52 1.08513 59.055 1.74513 56.82C2.16513 55.38 2.70513 52.98 4.68513 53.565C5.18013 53.715 6.65013 55.845 7.22013 56.355C10.1601 59.055 15.2751 56.475 16.9401 61.17C17.0901 61.575 17.1651 62.94 17.5551 63.06C18.6501 63.39 19.7601 60.195 19.7301 59.4C19.7001 58.74 19.2201 58.635 18.9501 58.215C18.0051 56.715 18.2301 55.38 19.2651 54.015C19.5201 53.685 20.2251 53.16 20.3451 52.905C20.5551 52.455 20.3901 51.375 20.5851 50.655C20.8101 49.845 23.3001 45.84 23.9151 45.315C24.3651 44.91 24.8151 44.7 25.4301 44.865C27.7851 45.48 29.7651 48.45 29.9601 50.805C30.1101 52.62 29.2401 54.09 28.7001 55.74C29.9301 55.5 30.8451 55.83 31.9851 56.205C32.4351 54.33 31.9101 52.5 31.8201 50.67C31.7601 49.44 31.9101 48.135 31.8201 46.92C31.6701 44.745 30.5601 43.785 32.4501 42.075C35.2851 39.48 38.3601 39.975 41.7351 39.165C43.1901 38.82 45.0351 37.545 45.4251 36.06C43.7751 36 42.1101 36.21 40.5501 36.735C37.8801 37.62 35.6151 40.215 32.7201 39.63C30.9501 39.27 30.7251 37.29 28.4001 38.505C26.0751 39.72 25.4601 41.565 22.3401 41.985C21.4551 42.105 19.4451 41.97 18.7251 42.285C18.0051 42.6 17.2101 45.48 16.5651 46.38C15.7551 47.505 13.0401 48.9 13.0701 50.19C13.1001 51.63 13.9851 52.08 13.1151 53.715C12.0201 55.8 8.97514 55.545 7.35513 54.195C4.80513 52.08 4.88013 46.41 5.91513 43.53C6.80013 41.04 11.4051 34.92 13.3701 33.015C15.0801 31.35 17.1651 31.62 19.3401 31.02C21.5151 30.42 22.8201 29.475 25.2801 29.85C27.0951 30.135 27.4701 31.305 29.8101 30.855C35.2101 29.835 40.1001 23.235 42.7551 18.795C43.7301 17.16 44.5251 15.21 45.5901 13.665C47.7501 10.53 50.4651 10.335 53.5101 8.46001C57.2451 6.16501 60.7551 3.31501 64.4751 0.975011C65.2851 0.705011 66.3501 0.900012 66.6201 1.78501C67.7451 5.59501 63.3651 8.79001 62.4651 12.21C62.3151 17.01 66.0351 23.415 64.3251 27.855C64.0551 28.56 63.5451 29.16 63.2751 29.775C61.8951 32.865 62.3601 37.005 59.8851 39.51C59.2101 40.2 58.4451 40.41 57.6201 40.83C58.3551 42.18 58.2051 43.92 58.4001 45.36C58.4601 45.81 58.6401 46.215 58.7001 46.62C58.9101 48.33 58.9851 50.085 59.2101 51.81L59.1951 51.795ZM62.1351 6.36001L53.5851 11.955C52.5201 12.555 51.1251 12.915 50.0601 13.425C48.1851 14.34 45.7851 19.665 44.5401 21.66C41.0601 27.21 33.7101 35.88 26.3151 33.495C25.8351 33.345 25.3101 32.94 24.7851 32.835C22.9551 32.475 20.8701 33.825 19.1451 34.245C17.4201 34.665 16.6101 34.095 15.1551 35.565C13.5201 37.23 8.87014 43.275 8.39014 45.375C8.10514 46.62 8.24014 49.2 8.55514 50.445C8.81014 51.42 9.24513 52.245 10.3851 52.125C9.96513 50.34 9.74014 48.96 10.9251 47.43C11.9901 46.08 13.7601 45.39 14.5251 43.83C14.8851 43.11 15.0051 42.27 15.3651 41.535C17.2251 37.77 20.9901 39.93 23.6601 38.265C26.1501 36.72 27.7701 34.02 31.3251 35.31C32.2101 35.625 33.0801 36.69 33.9051 36.645C34.5501 36.615 37.4451 34.68 38.4051 34.26C40.6401 33.3 46.1601 32.04 47.9901 34.035C50.0901 36.33 46.5351 40.23 44.4801 41.28C41.2701 42.93 37.1001 41.76 34.4751 44.4C34.9701 46.23 34.6701 48.135 34.7601 49.995C34.8501 52.17 35.3601 54.42 35.0001 56.655C35.1351 57.66 36.9501 57.675 37.1001 59.52C37.3701 62.655 33.2751 63.06 31.4751 60.915C31.0551 60.42 30.3651 58.83 29.7951 58.68C29.0601 58.485 28.2801 59.52 27.6801 59.79C25.8501 60.555 25.1451 58.845 25.1151 57.285C25.0401 54.18 28.9101 51.135 25.4601 48.345C25.2801 48.345 23.6001 51.015 23.5401 51.27C23.3301 52.17 23.8701 52.14 23.9751 52.65C24.4101 54.795 22.0851 54.66 21.3801 56.25C21.8001 57.03 22.5801 57.675 22.7151 58.605C23.0301 60.795 21.5151 64.635 19.4601 65.64C17.8251 66.435 15.7851 66.09 14.7801 64.515C14.2401 63.66 14.2701 62.565 13.8801 61.815C13.3551 60.795 10.6101 60.87 9.56013 60.675C7.64013 60.3 5.99013 59.55 4.67013 58.065C4.32513 58.02 4.49013 58.11 4.44513 58.305C4.11513 59.76 3.66513 61.935 4.25013 63.33C4.70013 64.425 6.02013 65.085 6.78513 65.955C7.91013 67.23 8.54014 68.97 7.83514 70.605C7.17514 72.15 6.02013 71.7 4.74513 71.355L4.11513 79.005C4.68513 78.975 5.09013 78.51 5.63013 78.42C7.67013 78.045 8.97513 79.53 9.53013 81.315C9.96513 82.71 10.9401 86.835 10.8351 88.155C10.7151 89.595 9.69514 91.29 8.21014 91.62C7.71514 91.725 6.47013 91.47 6.32013 91.92C6.83013 95.73 4.07013 99.375 3.95013 102.99C3.92013 103.74 3.96513 104.535 4.53513 105.105C6.57513 105.42 9.12514 105.075 11.0451 105.9C11.4201 106.065 11.9001 106.545 12.2001 106.62C12.9351 106.815 13.7451 106.695 14.6301 107.01C19.0551 108.57 19.3251 117.075 18.7851 120.945C18.6501 121.92 17.9001 123.225 17.8701 123.63C17.8401 123.99 18.2151 124.47 18.3351 124.875C18.9051 126.99 17.4501 129.165 17.4051 131.28C17.4051 131.715 17.5701 133.47 17.7951 133.695C18.2751 134.16 20.9601 132.915 21.8751 132.9C24.7401 132.855 26.4351 134.82 28.7751 135.69C30.4701 136.32 33.0051 136.125 34.2951 137.52C34.6551 137.91 34.7301 138.39 35.1651 138.69C35.5551 138.75 40.7151 135.195 42.1851 134.955C43.6551 134.715 44.4501 135.75 45.3051 135.735C45.7101 135.735 46.4001 135.135 46.8951 134.97C48.5601 134.445 50.0451 134.925 51.6201 135.405C50.6901 134.535 47.2401 129.915 46.3551 129.645C45.3801 129.36 43.5051 131.64 42.0201 131.805C40.2501 132.015 37.9251 130.695 38.5701 128.67C38.7351 128.13 39.2451 128.1 39.4551 127.83C40.1301 126.9 38.7351 124.44 40.6851 122.655C41.2251 122.16 43.0851 121.395 43.1451 120.765C43.3101 119.175 40.1151 116.595 40.2051 113.91C40.2351 113.19 40.8051 112.32 40.6701 111.735C40.5801 111.3 40.1451 111.12 39.9201 110.76C37.6101 107.025 42.4851 106.74 44.4201 105L41.1351 102.345C38.2551 100.245 39.9801 96.81 43.4451 97.845C44.0151 98.01 44.6901 98.49 45.3201 98.64C47.0001 99.045 49.1901 98.865 50.8251 98.445C51.1251 98.145 51.5901 95.52 51.3801 95.085C51.0051 94.305 47.7951 93.735 46.7901 92.175C45.9651 90.87 46.2651 90.12 47.5701 89.4C50.1201 87.975 53.8701 88.17 56.6151 88.83C57.7551 86.055 57.2901 83.01 55.9251 80.385C54.9651 78.54 52.5501 76.755 54.6801 74.61C55.4151 73.86 59.9901 70.47 60.8751 70.185C63.2901 69.39 65.0751 71.715 64.7151 74.025C64.5351 75.18 63.5601 76.125 63.5001 77.265C64.6101 76.095 65.3001 74.445 67.1751 74.445C67.7751 74.445 68.2401 74.715 68.8101 74.7C69.1101 74.445 69.2451 74.07 69.4101 73.725C70.7301 71.115 73.9251 64.56 73.6551 61.875C73.6101 61.485 73.5501 60.975 73.2501 60.72C72.0801 59.715 66.4551 60.09 64.8201 60.24L60.3051 59.64C59.5551 60.615 57.2901 63.45 55.9551 63.18C55.2951 63.045 54.5151 61.995 54.7851 61.29C55.6251 59.22 57.0951 57.285 57.9651 55.245C58.0251 55.095 58.3251 55.005 58.0251 54.84C57.7851 54.705 57.6501 54.84 57.4251 54.87C55.1601 55.245 52.1001 56.64 49.9701 56.805C48.7851 56.895 47.9451 56.055 48.2151 54.885C48.3651 54.24 49.2501 53.73 49.7001 53.31C49.7601 53.25 49.7151 53.01 49.8501 52.89C51.4551 51.48 53.6151 50.79 55.7301 50.685L55.9851 50.46C55.8201 48.84 55.5801 47.235 55.3701 45.63C55.2201 44.55 55.2501 43.365 54.9501 42.3C54.6051 41.1 52.3701 40.395 51.4851 39.195C49.7751 36.855 50.7651 33.3 53.9451 35.01C55.7301 35.97 57.0951 39.27 58.4001 36.165C59.1501 34.395 59.1951 32.055 59.7801 30.195C60.4401 28.065 62.0451 26.82 61.7601 24.375C61.2501 20.04 58.5651 14.76 59.8251 10.38C60.2601 8.85001 61.3851 7.69501 62.0901 6.31501L62.1351 6.36001Z" fill="black"/>
<path d="M64.2652 101.745C65.1652 102.675 66.0652 104.31 66.2002 105.6C66.3952 105.855 66.4852 105.585 66.5152 105.375C66.6202 104.535 66.2302 103.8 67.2352 103.275C68.8702 102.45 70.8952 103.665 71.8852 104.985C73.2502 106.8 72.9052 109.005 73.4902 111.045C73.8352 112.275 74.7202 113.475 75.1102 114.735C76.4302 118.935 75.0202 123.87 72.9652 127.605C72.5602 128.34 71.3452 129.915 71.1502 130.485C70.7452 131.715 71.3602 133.035 69.9202 133.95C67.4902 135.48 66.4402 132.255 64.7002 131.535C62.2402 130.515 58.2802 131.775 56.4952 129.435C56.2102 129.06 55.9102 128.07 55.8352 127.995C55.6852 127.845 54.6802 127.8 54.3352 127.695C52.5502 127.155 52.2202 125.82 52.9852 124.2C52.4002 123.645 51.6352 123.405 51.0202 122.88C49.4302 121.5 49.5202 120.12 48.8152 118.365C47.4502 114.96 44.6752 113.325 46.1152 109.065C46.7452 107.175 49.4902 106.08 51.0202 105.225C55.2502 102.87 59.2252 96.585 64.2502 101.76L64.2652 101.745ZM56.2252 124.8C57.3502 125.055 58.0702 125.145 58.5802 126.27C59.0902 127.395 58.5802 127.77 60.2002 127.935C62.9752 128.235 65.8552 127.89 68.0152 130.125C68.4502 128.865 69.3802 127.905 69.9952 126.795C71.8552 123.45 73.4752 119.16 72.1702 115.35C71.4202 113.16 70.6402 112.245 70.1752 109.695C70.0552 109.08 70.1002 107.82 69.7552 107.31C69.4552 106.875 69.1852 107.985 69.0502 108.18C68.5102 108.915 67.7302 109.455 66.7852 109.515C63.4702 109.71 63.8452 105.99 62.3152 104.115C61.4902 103.095 60.2302 102.465 58.9552 103.095C57.7702 103.68 55.9402 105.675 54.6202 106.575C53.0752 107.625 51.6952 108.255 50.2102 109.365C49.8802 109.605 49.4452 109.59 49.1002 109.98C47.7052 111.6 50.6902 115.02 51.4102 116.61C51.9352 117.765 52.1902 119.835 53.0302 120.615C53.4952 121.05 54.2902 121.26 54.8152 121.65C55.8502 122.415 56.3902 123.525 56.2552 124.815L56.2252 124.8Z" fill="black"/>
<path d="M70.9401 142.575C69.8451 141.36 70.5201 137.475 71.0301 135.975C72.3201 132.195 75.5601 128.58 76.0251 124.56C76.1451 123.525 75.6501 122.025 76.9701 121.605C79.1451 120.9 79.1151 124.065 79.0101 125.37C78.6951 129.12 76.4751 135.03 75.1101 138.66C74.8251 139.425 73.6701 142.725 73.2201 143.025C72.5751 143.445 71.4351 143.13 70.9401 142.59V142.575Z" fill="black"/>
<path d="M13.7453 53.9249C13.9403 53.6849 14.4953 53.5199 14.6003 53.1299C14.8103 52.3649 14.0003 51.5249 14.6003 50.4749C14.8703 50.0099 15.2453 49.9499 15.5453 49.5449C15.9803 48.9749 16.2053 47.9699 16.5803 47.2949C17.2403 46.0949 19.7303 43.4249 21.1253 43.3799C21.4403 43.3799 21.7253 43.4399 21.9803 43.6199C22.6103 44.7749 21.7253 45.6149 21.3953 46.4849C21.0353 47.4449 20.9153 48.3899 20.2553 49.2449C19.8353 49.7999 19.1153 50.1599 18.9203 50.8799C18.6803 51.7799 19.1903 52.8149 18.6653 53.7599C18.5003 54.0599 18.0953 54.2549 17.9753 54.6299C17.6753 55.5899 18.2603 56.0099 17.4353 57.0599C16.5503 58.1849 15.3803 58.2449 14.1203 57.7349C12.0503 56.8799 12.5153 55.3649 13.7453 53.9249Z" fill="black"/>
<path d="M67.2504 83.6099C67.6554 84.0449 67.6704 84.9899 67.9404 85.4999C68.4654 86.4749 69.5154 86.8349 69.9054 88.3799C70.3554 90.1499 69.2754 93.2849 68.2854 94.8149C67.8204 95.5349 66.5604 95.6999 65.9454 95.1449C64.8504 94.1699 65.4654 89.5199 66.2004 88.1849C65.2704 87.0599 64.1754 85.6949 64.8054 84.1349C65.1654 83.2499 66.5754 82.8749 67.2354 83.6249L67.2504 83.6099Z" fill="black"/>
<path d="M58.1153 132.825C59.4803 131.475 61.9853 134.175 63.2753 134.685C64.2503 135.06 64.8803 134.85 65.7953 134.985C69.8003 135.525 65.1503 141.525 63.0053 138.87C62.7503 138.555 62.7053 138.12 62.3753 137.775C61.3853 136.77 59.1353 135.99 58.0703 134.895C57.5903 134.43 57.6953 133.245 58.1153 132.825Z" fill="black"/>
<path d="M57.6504 94.6951C57.6504 94.6951 59.0904 93.54 59.1804 93.495C61.1904 92.34 62.3304 95.4901 60.4704 96.8101C58.4754 98.2351 56.3454 96.1201 57.6504 94.6951Z" fill="black"/>
</svg>