<svg width="91" height="102" viewBox="0 0 150 150" fill="none" xmlns="http://www.w3.org/2000/svg"><path d="M8.11971 108.022C8.01896 95.7601 1.90117 19.7296 7.07579 11.2142C9.44317 7.3177 116.837 -0.44351 123.973 10.9751C131.109 22.3932 131.109 120.808 120.98 124.79C105.887 130.723 38.9838 126.346 18.4993 124.79" stroke="black" stroke-opacity="0.9" stroke-width="9.53846" stroke-linecap="round" stroke-linejoin="round"/>
<path d="M38.3845 96.807C39.7259 82.904 38.3845 69.0035 38.3845 55.0762" stroke="black" stroke-opacity="0.9" stroke-width="9.53846" stroke-linecap="round" stroke-linejoin="round"/>
<path d="M37.7886 37.7885C37.7886 36.4233 38.3847 37.1339 38.3847 36" stroke="black" stroke-opacity="0.9" stroke-width="9.53846" stroke-linecap="round" stroke-linejoin="round"/>
<path d="M62.2307 55.0762C61.3233 68.7138 61.7215 82.5082 61.7215 96.2108" stroke="black" stroke-opacity="0.9" stroke-width="9.53846" stroke-linecap="round" stroke-linejoin="round"/>
<path d="M62.2307 66.663C62.2307 60.7628 69.6457 55.9942 73.8575 54.9444C100.876 48.2108 99.2483 62.0559 98.0548 95.6152" stroke="black" stroke-opacity="0.9" stroke-width="9.53846" stroke-linecap="round" stroke-linejoin="round"/>
</svg>
