<svg width="120" height="128" viewBox="0 0 100 170" fill="none" xmlns="http://www.w3.org/2000/svg">
  <path d="M123.847 67.5127c-.369-4.5565-2.16-8.6543-3.956-12.7776-1.417-3.2517-3.099-6.371-5.444-9.0264-1.082-1.2385-2.3-2.4821-3.817-3.1549-.973-.423-1.911-.8053-2.933-1.0805-1.747-.4689-3.578-.632-5.374-.7696-3.1983-.2344-6.3815-.367-9.5947-.3772-1.7114-.0101-3.4128-.0102-5.1242.0102-1.4719.0153-2.9238.051-4.3808-.0611-.459-.0969-.903-.209-1.3521-.3619a3.6842 3.6842 0 0 1-.1896-.1121c-.0649-.0663-.1247-.1325-.1846-.1988-.0699-.1223-.1397-.2446-.2046-.3721a14.573 14.573 0 0 1-.3592-1.3149c-.01-.1988-.015-.3925-.01-.5963a8.4456 8.4456 0 0 1 .2545-.9888c.3592-.7136.7783-1.371 1.2374-2.0285 1.2024-1.5036 2.4847-2.9409 3.8568-4.2813.8282-.8206 1.6665-1.6259 2.4648-2.4719.9679-1.0245 1.7912-2.2273 2.5646-3.3996 1.1775-1.794 2.1155-3.7104 2.7941-5.7491.5787-1.6921.6735-3.4098.5687-5.1885-.0449-.7238-.2494-1.4067-.5887-1.998-.1946-.5096-.489-.9785-.8931-1.376-.6886-.6678-1.3821-1.3456-2.1155-1.9623-.5539-.469-1.1127-.948-1.7014-1.371-1.0379-.7493-2.1804-1.2284-3.3579-1.6973-1.7813-.734-3.6773-1.3047-5.5433-1.8042-1.8461-.4995-3.7521-.7798-5.6281-1.101-2.2353-.3771-4.4905-.6574-6.7507-.902-1.9958-.2243-3.9916-.3466-5.9973-.3925-1.0229-.0255-2.0507-.051-3.0735-.051-.9281 0-1.8611.0204-2.7842.0867-2.1354.1529-4.2659.4892-6.3914.846-1.8312.3007-3.6423.734-5.3986 1.371-7.8983 2.8695-14.8586 7.6809-20.9557 13.5065-1.417 1.3506-2.824 2.742-4.1412 4.1997-1.3871 1.529-2.6594 3.1549-3.9018 4.791-2.5945 3.4097-4.8547 7.0488-6.8355 10.851-.948 1.8144-1.7463 3.7002-2.5297 5.5911-.8282 2.003-1.5916 4.001-2.1903 6.0804-1.1127 3.8991-1.9759 7.8542-2.6594 11.85C.5183 63.8838.0842 68.0172.0143 72.2374c-.0349 1.9826-.02 3.9805.2046 5.9581.2645 2.3037.6985 4.5208 1.2424 6.7736 1.0128 4.1793 2.6394 8.3179 4.71 12.064 1.921 3.4559 3.807 6.9929 6.0422 10.2499 1.2125 1.768 2.4748 3.532 3.9467 5.081 1.4419 1.504 2.8889 3.007 4.3708 4.465 2.9986 2.931 6.4114 5.504 9.9988 7.62 3.5774 2.094 7.09 4.189 11.0367 5.479 3.9267 1.289 7.9382 1.885 12.0195 2.385 8.1478.968 16.4902 1.203 24.583-.347 3.8469-.734 7.579-1.835 11.2014-3.333 3.9915-1.636 7.7885-3.522 11.4156-5.882 3.677-2.395 7.135-5.316 9.76-8.904 1.197-1.646 2.215-3.384 3.203-5.168.948-1.712 1.961-3.384 2.849-5.112 1.013-1.952 1.736-4.0569 2.499-6.116.719-1.9265 1.343-3.8684 1.896-5.851 1.068-3.8991 1.867-7.8287 2.42-11.8398.554-4.0366.754-8.2007.434-12.2475Zm-7.798 11.6053c-.479 3.16-1.108 6.2741-1.986 9.3474-.489 1.7126-.958 3.4302-1.582 5.0815-.533 1.4271-1.107 2.8389-1.686 4.2507-.928 2.0948-2.111 4.0264-3.253 6.0144-1.113 1.916-2.215 3.827-3.493 5.632-1.332 1.605-2.794 3.037-4.3705 4.388-3.5425 2.681-7.3394 4.837-11.3659 6.646-2.4099 1.009-4.8298 1.962-7.3545 2.645-2.4647.663-4.9245 1.239-7.4392 1.642-1.7264.214-3.4727.418-5.214.438-2.0407.02-4.0913.01-6.137-.097-3.8968-.204-7.7636-.571-11.6354-1.065-3.1234-.515-6.1719-1.33-9.1207-2.487-2.1904-1.025-4.2859-2.197-6.3765-3.42-1.0678-.622-2.1455-1.239-3.1933-1.906-.938-.607-1.8361-1.275-2.7292-1.953-1.7463-1.462-3.3729-3.027-4.9445-4.689-1.5717-1.661-3.1234-3.323-4.5355-5.127-1.6265-2.273-3.0834-4.6278-4.5204-7.0284-1.5816-2.6146-3.0984-5.2445-4.3208-8.0426-.6337-1.7023-1.2624-3.4098-1.7314-5.1631-.484-1.8552-.908-3.7206-1.2224-5.6166-.444-4.7604-.2644-9.6227.2345-14.3729.923-6.5595 2.3151-13.068 4.715-19.2351 1.1027-2.6147 2.2802-5.2089 3.7271-7.635 1.6266-2.7573 3.4178-5.3669 5.3138-7.9101 1.7164-2.2018 3.4876-4.3323 5.4635-6.3149 2.0007-2.0031 4.0564-3.9042 6.2567-5.6778 2.9837-2.3191 6.2468-4.1794 9.6496-5.7492 1.9609-.7849 3.9417-1.5086 5.9873-2.0336 1.8861-.479 3.787-.846 5.708-1.162 4.5853-.5505 9.2205-.3262 13.8058.2293 2.5196.367 5.0343.8053 7.529 1.3354 2.4948.53 4.8847 1.2793 7.2597 2.2171.464.2242.9081.474 1.3422.7645 1.2673.846 2.4847 1.6717 1.9558 3.4658-.4091 1.3863-1.7912 2.9255-2.6893 4.0468-.9829 1.2334-2.0457 2.3598-3.2032 3.4658-1.2524 1.2028-2.3451 2.5178-3.4228 3.8888-1.6814 2.1509-3.2032 4.2456-3.9366 6.952-.5888 2.1814-.2845 4.4546.4141 6.5493.9031 2.7166 2.7392 4.898 5.4335 5.846 2.3101.8257 4.7549.8053 7.1648.7696 1.9758-.0356 3.9666-.0204 5.9425.0102 3.772.0663 7.5041.4129 11.2562.734.115.0102.224.0254.339.0356.983.1631 1.936.3976 2.874.7187.265.1325.519.2752.778.4383.809.7136 1.527 1.5137 2.206 2.3598 1.746 2.5433 3.008 5.3669 4.221 8.216.858 2.1814 1.592 4.373 1.991 6.7022.189 1.9215.229 3.843.229 5.7696-.015 2.0285-.1 4.057-.334 6.0855ZM31.3481 59.9287c1.5068.4332 3.1184.2599 4.6352-.0306 1.1126-.2141 2.1804-.8155 3.1932-1.3353 2.1355-1.0908 3.797-2.7319 5.0843-4.7655 1.1475-1.8247 1.8211-3.9347 2.0506-6.0805.2046-1.8603-.2295-3.6187-.9929-5.2904-.3293-.7237-.6785-1.2793-1.1775-1.9266-.5688-.7135-1.2673-1.2232-1.9758-1.7838-.4491-.2651-.928-.4333-1.437-.4944-.6037-.4078-1.3272-.6473-2.0955-.6881-.3543-.0204-.7085-.0255-1.0678-.0255-2.7142 0-5.4534.5709-7.7087 2.1815-1.2623.9021-2.3101 1.9622-3.1932 3.2415-.7434 1.0601-1.2424 2.263-1.6366 3.5015-.3392 1.1111-.434 2.3292-.5787 3.476-.0998.79.0898 1.6462.2395 2.4158.1397.79.4241 1.58.7534 2.3038 1.1625 2.4821 3.298 4.5565 5.9075 5.3006Zm.6985-10.5452a11.0528 11.0528 0 0 1 .3942-1.58 9.4522 9.4522 0 0 1 .5239-.9072c.2345-.2651.474-.5148.7284-.7544.2794-.1885.5638-.3567.8632-.5198.4341-.1478.8731-.2651 1.3222-.367.7185-.0561 1.432-.051 2.1554-.0102l.0898.0918c.0449.0815.0899.1682.1348.2497.1347.3975.2444.7849.3293 1.1926.005.1886 0 .3721-.005.5607a13.8424 13.8424 0 0 1-.4092 1.5953c-.2894.632-.6037 1.2385-.9879 1.8246-.2145.2447-.444.474-.6835.6932-.509.3415-1.0428.632-1.5917.897-.2844.0968-.5688.1835-.8631.2548a9.8895 9.8895 0 0 1-.6736.0051c-.0749-.0203-.1447-.0356-.2146-.0611-.1746-.1682-.3492-.3466-.5089-.5352-.1497-.2293-.2894-.4587-.4191-.7033-.0898-.316-.1746-.632-.2445-.9531.005-.3313.03-.6524.0599-.9735Zm11.3211 23.9548c-.7584-.7085-1.7264-1.0907-2.6894-1.0907-.7633 0-1.5217.2395-2.1754.7441-.4191-.1682-.8731-.265-1.3471-.265-.7185 0-1.427.1019-2.1255.2344a5.6154 5.6154 0 0 0-1.2524.4893c-.5787.2548-1.0927.5453-1.6265.8919-1.2973.8359-2.5945 1.8603-3.5525 3.0734-1.1426 1.4475-2.0607 3.0937-2.4349 4.9132-.2295 1.1009-.2844 2.2375-.3043 3.3537-.0449 3.2874 1.2224 6.7736 3.9367 8.6696 1.4918 1.055 3.1433 1.4475 4.9295 1.58.9181.0714 1.8461-.0459 2.7692-.1784 1.2124-.1733 2.2003-.3822 3.3379-.8919 1.1027-.4995 2.0607-1.2691 2.9438-2.0948.3293-.3109.5987-.6931.8731-1.055.489-.6269.9081-1.2131 1.2624-1.9368.4341-.8919.7833-1.8858.9929-2.8644.1097-.5147.2095-1.0448.3043-1.5596.2495-1.5137.3144-2.8643.0749-4.3679-.4341-2.8695-1.8012-5.6778-3.9167-7.6451Zm-3.6673 10.1323c-.1547.9327-.3542 1.8552-.6486 2.7523-.1198.2242-.2445.4434-.3842.6524-.2595.3007-.5339.5759-.8283.8409a6.4311 6.4311 0 0 1-.5688.3364c-.3442.107-.6935.1835-1.0477.2548-.5938.0408-1.1825.0561-1.7763.0204a4.2556 4.2556 0 0 1-.3642-.107c-.0848-.0459-.1697-.0917-.2495-.1427a2.349 2.349 0 0 1-.1048-.1121 12.6753 12.6753 0 0 1-.1995-.3517 10.3914 10.3914 0 0 1-.3343-1.2895c-.0449-.7747-.03-1.5494.0399-2.3292.0549-.2752.1247-.5403.2046-.8155.1796-.3619.3792-.7084.5987-1.0499a5.0554 5.0554 0 0 1 .3692-.367c.6935-.5046 1.407-.9786 2.1604-1.3761.0799-.0255.1547-.051.2345-.0714.1198-.0051.2395-.0051.3593-.0051.6586 0 1.2873-.1835 1.8311-.5045.0649.1223.1297.2446.1896.372.2195.6371.3942 1.2793.5389 1.947.0199.4536.0149.897-.02 1.3455Zm-2.3101 12.3036c.0399-.0051.0649-.0153.1048-.0204.2944-.0408.5987-.0815.8881-.1223-.3343.051-.6636.0968-.9929.1427Zm36.892-6.7175c-.8283-1.84-2.4548-2.9969-4.0565-4.0876-.5238-.3517-1.1376-.5148-1.7562-.5148-.7285 0-1.4619.2243-2.0707.6218-.7284-.1121-1.4569-.2039-2.2003-.2395-.9081-.0357-1.906.214-2.7692.4892-1.5716.4893-2.8888 1.3915-4.1412 2.4414-.7983.6677-1.5068 1.5698-2.1055 2.4159-.5988.846-1.1426 1.6819-1.5518 2.6401-.4889 1.1468-.8182 2.2426-1.0128 3.476-.1297.8002-.2295 1.5953-.2645 2.4056.0449.5658.1198 1.1264.2046 1.6822.1198.458.2844.902.499 1.325.5438 1.305 1.5267 2.441 2.6044 3.328 1.4071 1.183 2.9787 1.947 4.765 2.34 3.4377.754 7.2297.066 9.9789-2.218 1.9059-1.58 3.0635-4.001 3.9017-6.2941.5788-1.5902.8183-3.374.9081-5.0458.0449-.8052-.0898-1.6717-.2195-2.4617-.1348-.8257-.3643-1.5392-.7135-2.3037Zm-10.0588 3.2415c.03.0051.0549.0102.0849.0102-.03-.0051-.0599-.0051-.0849-.0102Zm2.5796 4.9694a18.6613 18.6613 0 0 1-1.0628 1.9418 19.3858 19.3858 0 0 1-.3193.3466 5.767 5.767 0 0 1-.484.2854 8.5629 8.5629 0 0 1-1.0527.2806c-.479.025-.953.02-1.432-.01a11.8522 11.8522 0 0 1-1.2424-.3317 8.6965 8.6965 0 0 1-.6336-.3721c-.2246-.2141-.4391-.4332-.6387-.6677-.0299-.0459-.0549-.0917-.0848-.1376-.005-.2548.005-.5097.0249-.7696.1098-.6932.2545-1.3761.474-2.0489.2645-.5403.5738-1.0499.9031-1.5545.3493-.4129.7135-.8053 1.1127-1.1774a8.4535 8.4535 0 0 1 .8232-.4791c.2744-.0917.5439-.1631.8233-.2242a6.528 6.528 0 0 1 .5488.0102c.1248.0204.2495.0458.3692.0713.3543.0612.6986.102 1.0329.102.4989 0 .9779-.0867 1.4569-.3007.0199.0203.0349.0407.0549.0611.0349.1223.0648.2447.0948.367.0449.5657.0548 1.1264.0149 1.6972-.1796.9888-.444 1.9572-.7833 2.9103ZM98.8204 76.009c-1.1326-1.1672-2.4548-1.8145-3.9168-2.4159-.3243-.0866-.6536-.1325-.9829-.1325-.3293 0-.6636.0459-.9929.1325-.5239.1478-1.0128.4179-1.427.7798-.9629-.3211-2.0406-.2599-2.9238.3313-.7833.5148-1.5617 1.0397-2.3201 1.6157-1.4269 1.0703-2.5546 2.2731-3.6123 3.7206-.3393.4587-.5588 1.0041-.7933 1.5392-.2844.6677-.5339 1.315-.7285 2.0183-.3393 1.2233-.459 2.5535-.4491 3.8175.0449 2.9663 1.3871 5.8154 3.5226 7.7879 1.1126 1.0142 2.2802 1.636 3.6423 2.2069.7334.3211 1.7363.4536 2.5197.4893 1.0028.0356 1.9409-.0867 2.9338-.2549 1.7014-.2803 3.293-1.1824 4.6102-2.2833.5888-.4893 1.1226-.9684 1.6016-1.5698 1.7011-2.1509 2.5301-4.8114 2.7491-7.533.195-2.37-.14-4.7095-1.123-6.8705-.558-1.2589-1.3616-2.3955-2.3096-3.3791Zm-4.3658 9.8112c-.0998.5148-.2195 1.0092-.3742 1.5138-.1996.4332-.4141.8562-.6536 1.2691-.2495.2803-.5189.5402-.7983.7951-.2096.1427-.4242.265-.6487.3873a11.5283 11.5283 0 0 1-.913.2497c-.2495.0102-.499 0-.7435-.0152-.1247-.0306-.2444-.0663-.3642-.102-.2245-.1274-.4441-.2599-.6536-.4077-.2245-.2141-.4441-.4332-.6536-.6626-.0998-.1631-.1896-.3262-.2844-.4995a9.7934 9.7934 0 0 1-.3343-1.1315c-.025-.4485-.015-.8868.0149-1.3404.0849-.4281.1946-.8461.3293-1.2589a7.7135 7.7135 0 0 1 .4491-.7951c.3542-.4026.7285-.7747 1.1226-1.1366.7484-.5453 1.5268-1.0448 2.3051-1.5545a4.276 4.276 0 0 0 .3792-.2752c.1298.0713.2595.1427.3842.2242.2096.1988.4092.4027.6038.6218.1846.3008.3542.6066.5189.9175.1496.4383.2644.8766.3542 1.3302.025.632.01 1.2436-.0399 1.8705Z" fill="#111918"/>
</svg>
