
<svg version="1.0" xmlns="http://www.w3.org/2000/svg"
 width="342.000000pt" height="116.000000pt" viewBox="0 0 342.000000 116.000000"
 preserveAspectRatio="xMidYMid meet">

<g transform="translate(0.000000,116.000000) scale(0.100000,-0.100000)"
fill="#000000" stroke="none">
<path d="M3382 1151 c-9 -6 -12 -47 -10 -162 3 -146 4 -154 23 -154 19 0 20 8
23 151 2 115 -1 154 -11 162 -7 6 -18 7 -25 3z"/>
<path d="M2864 1117 c-7 -29 12 -169 32 -236 17 -58 46 -97 63 -87 19 12 3
146 -20 169 -11 10 -19 30 -19 45 0 15 -3 38 -7 52 -12 46 25 3 63 -73 25 -49
40 -67 52 -65 13 2 18 16 20 58 1 30 5 66 8 79 5 23 6 23 25 5 11 -10 34 -43
51 -73 37 -65 48 -75 66 -57 11 11 9 22 -11 62 -72 140 -139 179 -173 99 l-13
-33 -40 39 c-46 46 -87 53 -97 16z"/>
<path d="M3232 1077 c-16 -19 -2 -33 45 -47 77 -23 101 8 31 40 -51 23 -62 24
-76 7z"/>
<path d="M2007 1054 c-4 -4 -7 -57 -7 -117 0 -100 -2 -109 -20 -114 -11 -3
-20 -14 -20 -25 0 -11 9 -22 20 -25 17 -4 20 -14 20 -55 0 -46 2 -49 23 -46
19 3 22 10 25 51 2 38 7 47 21 47 22 0 45 25 36 40 -3 5 -17 10 -30 10 -24 0
-24 1 -27 117 -2 97 -6 118 -18 121 -9 1 -19 0 -23 -4z"/>
<path d="M2194 1037 c-3 -8 -4 -34 -2 -58 2 -36 7 -44 23 -44 18 0 20 7 20 55
0 44 -3 55 -18 58 -9 2 -20 -3 -23 -11z"/>
<path d="M1204 1005 c-11 -29 7 -35 107 -35 l99 0 0 -199 c0 -164 3 -201 15
-211 12 -10 18 -10 30 0 12 10 15 47 15 211 l0 199 84 0 c61 0 87 4 96 15 26
31 0 35 -221 35 -183 0 -221 -2 -225 -15z"/>
<path d="M2330 935 c-10 -12 -11 -24 -4 -43 13 -38 82 -69 179 -81 138 -17
149 -33 53 -80 -139 -68 -325 -90 -407 -48 -39 20 -57 21 -66 6 -11 -17 23
-47 73 -63 101 -35 278 -10 420 60 151 74 127 151 -55 174 -43 6 -94 15 -113
22 -33 10 -33 11 -11 19 14 6 21 15 19 26 -4 25 -70 30 -88 8z"/>
<path d="M1553 933 c-18 -7 -18 -268 0 -303 23 -45 40 -31 52 42 10 62 27 99
39 87 3 -3 9 -41 13 -84 7 -71 10 -80 28 -80 18 0 20 6 19 82 -1 98 -18 133
-64 133 -16 0 -32 -6 -37 -12 -5 -8 -10 18 -13 61 -5 72 -11 85 -37 74z"/>
<path d="M1780 835 c-17 -20 -5 -45 20 -45 15 0 26 -11 36 -36 8 -20 14 -37
12 -38 -2 -1 -23 -8 -47 -16 -24 -8 -50 -24 -58 -36 -12 -18 -11 -24 4 -42 29
-33 57 -36 90 -8 16 13 40 26 53 28 22 3 25 8 22 37 -4 48 -41 129 -70 151
-30 24 -45 25 -62 5z"/>
<path d="M1095 779 c-102 -9 -206 -29 -297 -59 -106 -35 -318 -146 -409 -214
-207 -156 -418 -433 -378 -497 13 -22 42 2 50 41 17 82 205 301 358 416 95 71
285 170 402 208 98 33 233 56 323 56 83 0 120 17 97 44 -7 9 -23 15 -35 15
-11 -1 -61 -5 -111 -10z"/>
<path d="M2197 512 c-13 -14 -17 -38 -17 -94 0 -89 14 -138 40 -138 22 0 30
18 19 45 -12 30 -11 155 1 155 20 0 55 -47 93 -124 32 -64 42 -77 60 -74 17 2
24 13 31 43 4 22 16 63 25 90 28 85 71 69 124 -47 14 -30 28 -48 39 -48 29 0
30 18 5 73 -75 163 -177 175 -222 25 l-12 -43 -18 35 c-54 105 -126 148 -168
102z"/>
<path d="M1679 497 c-49 -33 -63 -81 -52 -187 7 -71 11 -85 27 -88 10 -2 22 2
27 10 12 18 11 112 -1 124 -16 16 1 84 26 100 44 29 72 -3 124 -141 20 -54 31
-71 50 -76 68 -19 239 -1 273 28 24 22 21 42 -6 52 -15 6 -27 23 -35 49 -17
57 -62 92 -117 92 -43 0 -73 -19 -60 -40 3 -5 26 -10 50 -10 34 0 47 -5 59
-22 9 -12 16 -25 16 -28 0 -3 -27 -2 -60 4 -58 9 -63 8 -121 -22 -4 -1 -10 10
-13 25 -18 73 -90 153 -137 153 -9 0 -31 -10 -50 -23z m381 -195 c25 -6 25 -6
-5 -13 -16 -4 -56 -7 -88 -8 -56 -1 -57 0 -46 20 10 19 17 21 62 15 29 -4 63
-10 77 -14z"/>
<path d="M2717 497 c-29 -28 -45 -105 -31 -145 17 -47 90 -82 156 -74 37 4 80
47 76 75 -4 27 -36 35 -45 10 -9 -26 -23 -33 -63 -33 -46 0 -80 24 -80 56 0
15 4 23 10 19 6 -4 35 1 64 9 39 12 57 22 61 37 10 31 -24 60 -78 66 -39 5
-49 2 -70 -20z m73 -31 c0 -2 -9 -6 -20 -9 -11 -3 -20 -1 -20 4 0 5 9 9 20 9
11 0 20 -2 20 -4z"/>
</g>
</svg>
