<svg width="96" height="101" viewBox="0 0 96 101" fill="none" xmlns="http://www.w3.org/2000/svg">
<path d="M21.4128 100.515C20.3843 100.515 19.3664 100.455 18.3414 100.326C14.4521 99.8475 11.1914 98.9761 8.37355 97.6618C7.55926 97.2832 6.87355 96.9654 6.25926 96.5368C5.52355 96.0261 4.79498 95.4832 4.11641 94.9011C3.61998 94.4797 3.18426 94.0261 2.78069 93.5297C2.06284 92.6475 1.38784 91.7654 0.994979 90.6368C0.337836 88.7225 0.734264 86.6404 2.03426 85.2047C3.26998 83.8332 4.94855 83.1904 6.14141 82.894L6.66284 82.7654C7.56998 82.5475 8.46998 82.3261 9.34855 82.0082C9.99855 81.6832 10.595 81.3261 11.1771 80.9261C11.8843 80.3118 12.5128 79.6511 13.1021 78.944C14.3235 77.2332 15.3235 75.369 16.2914 73.5761C17.0235 72.219 17.7521 70.8582 18.5771 69.5547C19.1057 68.7154 19.6485 67.8725 20.2128 67.044C21.0378 65.8475 22.045 64.7761 23.2878 63.7797L23.62 63.5154C24.7628 62.5868 25.9485 61.6332 27.3057 61.044C28.595 60.4832 29.9485 60.1332 31.4521 59.9761C31.7985 59.9404 32.1378 59.9225 32.4807 59.9225C32.6628 59.9225 33.1521 59.9654 33.1521 59.9654L33.4521 59.8654L33.62 59.4654C34.2985 57.8654 34.9771 56.2618 35.6985 54.6797C36.5878 52.7332 37.6485 50.8368 38.6735 49.0011L39.02 48.3797C39.77 47.0225 40.5807 45.7011 41.3914 44.3832L42.6985 42.2332C43.3485 41.1547 44.0057 40.0761 44.7271 39.0404C45.1485 38.4368 45.5914 37.8511 46.0378 37.2618L46.7343 36.3297C47.6878 35.044 48.6128 33.7404 49.5414 32.4297C50.4521 31.1475 51.3664 29.8654 52.2985 28.5975L52.8021 27.919C54.5807 25.5082 56.42 23.0118 58.6093 20.869C60.845 18.6761 63.2521 16.7047 65.7236 14.7047C66.2486 14.2761 66.7593 13.844 67.27 13.4082C67.92 12.8547 68.5735 12.3011 69.245 11.769C70.6235 10.6797 72.0378 9.64395 73.4807 8.63681C76.1843 6.75824 78.6343 5.18324 80.97 3.82252C82.2593 3.06895 83.6414 2.44395 84.82 1.92967C86.2485 1.30109 88.0271 0.515381 89.8414 0.515381C90.2271 0.515381 90.62 0.551095 91.0093 0.622524C92.7807 0.972524 94.2378 2.39038 94.8093 4.32609C95.0557 5.15824 95.2128 6.02967 95.2807 6.91181C95.42 8.61895 95.1593 10.6225 94.52 12.6975C94.0664 14.169 93.595 15.6404 93.0414 17.0761C91.9557 19.919 90.8235 22.469 89.37 25.1404C88.795 26.194 87.2343 28.9832 87.2343 28.9832C86.2307 30.7725 85.2235 32.5654 84.2057 34.344C83.295 35.9404 82.2985 37.4832 81.3021 39.0261L79.47 41.8904C78.42 43.5547 77.3771 45.2047 76.2236 46.8082C74.2128 49.619 72.1628 52.2297 70.1271 54.5761C68.3271 56.6582 66.4628 58.6832 64.5985 60.7011L63.8414 61.519C61.57 63.9797 59.37 66.0368 57.1128 67.8154C57.1128 67.8154 55.5021 69.0761 55.3771 69.1582C54.5878 69.7582 53.8057 70.3368 53.0093 70.9011C51.8557 71.7368 50.6164 72.6118 49.2914 73.2904C49.1771 75.3475 49.07 76.8047 48.8485 78.169C48.5843 79.7404 48.0057 81.2297 47.4771 82.4761C46.9807 83.6368 46.3557 84.8832 45.6164 86.1797C44.7914 87.6261 43.845 88.9511 42.8843 90.019C41.995 91.0011 41.0307 91.9261 40.0235 92.8118C38.6771 93.9868 37.4557 94.944 36.2878 95.7225C35.0807 96.5297 33.7664 97.2332 32.3807 97.8154L31.8664 98.0332C30.5593 98.5904 29.2057 99.1654 27.82 99.5404C26.4021 99.9297 24.5235 100.387 22.5771 100.48C22.195 100.508 21.8057 100.515 21.4128 100.515ZM6.55212 88.7975C6.58069 89.2011 6.68069 89.3618 6.78784 89.519C7.33784 90.1618 7.91284 90.7118 8.54855 91.2368C9.32355 91.794 10.1914 92.2797 11.2914 92.7797C13.5521 93.6547 15.9307 94.094 18.1593 94.4404C19.1486 94.5511 20.1236 94.6118 21.1021 94.6118C21.7843 94.6118 22.4664 94.5832 23.1521 94.5225C25.2664 94.1761 27.4271 93.5547 29.77 92.6225C30.7807 92.169 31.7628 91.6832 32.7128 91.1261C33.62 90.6011 34.47 89.9761 35.3128 89.344C36.9485 88.0368 38.2271 86.844 39.2914 85.644C40.5521 83.919 41.6378 82.0475 42.52 80.0725C43.0271 78.7332 43.3485 77.5868 43.5414 76.469C43.6021 75.7404 43.62 75.0261 43.6343 74.3154L43.6378 74.2118L43.395 73.9797C40.6271 71.6475 37.9485 69.2118 34.5093 65.944L33.4235 65.7832C33.0557 65.7511 32.7057 65.7332 32.3557 65.7332C32.1021 65.7332 31.8521 65.744 31.595 65.7618C30.9664 65.869 30.3628 66.0082 29.7664 66.2011C29.1307 66.5297 28.5664 66.9154 28.0164 67.3297C27.1343 68.0618 26.2128 68.844 25.4057 69.7868C24.2307 71.4297 23.1021 73.3118 21.9414 75.5511C20.97 77.419 19.9128 79.394 18.5807 81.1832C17.8235 82.2118 16.9878 83.294 16.0093 84.2511C15.2307 85.0154 14.2628 85.7368 12.9664 86.5225C11.9235 87.144 10.7771 87.6297 9.65569 87.9225C9.28784 88.019 8.91998 88.1011 8.54855 88.1832C8.00926 88.3011 7.46641 88.419 6.93426 88.5868L6.59498 88.7654L6.50212 88.619L6.42712 88.7082L6.55212 88.7975ZM42.97 53.2225C41.6057 55.6011 40.645 57.4618 39.8521 59.2511L38.8628 61.7118L39.2271 62.2261C41.3235 64.2761 43.4878 66.4011 45.8128 68.2761C47.5414 67.5404 48.8164 66.6082 50.0485 65.7118C50.0485 65.7118 51.9128 64.3511 52.1021 64.2225C52.1878 64.1547 52.2664 64.094 52.3485 64.0261L52.6521 63.7975L52.6486 63.7832C53.0843 63.4332 53.5093 63.0832 53.9378 62.7297C52.2914 60.8832 50.5307 59.4225 48.77 57.9618L48.4271 57.6832C46.8021 56.319 45.2093 54.9154 43.6164 53.5118L43.0771 53.0332L42.97 53.2225ZM88.8343 6.83681C88.3843 6.96895 87.9414 7.13324 87.5057 7.3011C83.22 9.21895 79.4057 11.8368 74.9878 15.1797L70.7557 18.5404C69.5378 19.5011 68.3128 20.4618 67.1307 21.469C64.0771 24.0761 61.6164 26.5618 59.6093 29.0725C57.8557 31.3725 56.1521 33.694 54.4414 36.019L51.2521 40.344C50.4843 41.3618 49.7164 42.3797 49.0307 43.4582L46.2807 47.7475L47.4628 49.0404C50.0878 51.4618 52.8021 53.9654 55.6485 56.2261L56.1771 56.619C56.9128 57.1618 57.6521 57.7047 58.3557 58.2904L59.3628 57.4725C60.045 56.7547 60.7271 56.0332 61.395 55.2975L62.8628 53.6975C63.7664 52.719 64.6664 51.7404 65.5307 50.7368C66.7664 49.2904 67.9664 47.819 69.1378 46.319C70.9843 43.8904 72.7164 41.3475 74.4378 38.5404C74.9378 37.7225 75.4557 36.9118 75.9771 36.1011C77.0164 34.4832 78.0878 32.8082 79.0021 31.0832C79.8878 29.4154 80.7878 27.7582 81.6878 26.0975L83.3593 23.0118C84.0914 21.6618 84.7664 20.3011 85.3736 18.8868C85.6736 18.1797 85.9985 17.4904 86.3307 16.7975L87.02 15.3082C87.7771 13.2904 88.62 10.9511 89.0521 8.55824C89.0843 8.02252 89.0985 7.51181 89.0735 6.99752L89.0628 6.76538L88.8343 6.83681ZM88.945 6.67967L88.9985 6.73324L89.0843 6.73681V6.37967L88.945 6.67967Z" fill="#111918"/>
</svg>
