<svg width="111" height="102" viewBox="0 0 140 170" fill="none" xmlns="http://www.w3.org/2000/svg">
<path d="M123.823 127.979C123.839 126.663 123.185 125.528 122.242 124.752C121.775 123.083 120.317 121.777 118.5 121.75C115.948 121.706 113.38 121.464 110.828 121.359C109.278 121.293 107.729 121.276 106.174 121.238C106.71 119.635 107.187 118.01 107.568 116.336C108.308 113.114 108.656 109.825 109.026 106.548C109.353 103.662 109.578 100.798 109.418 97.8844C109.257 94.8386 108.774 91.7982 108.361 88.7689C108.254 87.816 108.158 86.8577 108.072 85.8938C108.061 85.8112 108.056 85.7175 108.05 85.6349C108.217 85.5688 108.394 85.5743 108.549 85.4807C110.506 84.3406 112.468 83.228 113.975 81.4435C115.299 79.8957 116.505 78.2214 117.443 76.3872C117.856 75.5721 118.248 74.7349 118.612 73.8922C118.719 73.6829 118.816 73.4626 118.886 73.2368C119.239 72.3665 119.561 71.4853 119.845 70.593C120.483 68.5606 120.719 66.3574 120.73 64.2314C120.73 62.2816 120.606 60.3098 120.424 58.3766C120.22 56.1514 119.963 53.9097 119.572 51.7066C118.821 47.3884 117.518 43.1804 115.738 39.1927C115.025 37.6009 114.034 36.1799 112.913 34.8635C111.385 33.0625 109.396 31.7791 107.241 30.9144C105.804 30.3471 104.206 30.3691 102.679 30.3471C102.201 30.3361 101.724 30.3361 101.247 30.3361C101.145 30.3361 101.043 30.3361 100.941 30.3361C100.824 29.8459 100.732 29.3557 100.614 28.8655C100.11 26.8331 99.6601 24.8007 99.1294 22.7738C98.6147 20.8681 98.0035 18.9899 97.4191 17.1062C96.69 14.7764 95.9341 12.4686 95.1138 10.1828C94.7439 9.13085 94.3257 8.10639 93.9558 7.05439C93.5161 5.7986 93.1569 4.51527 92.7441 3.24846C92.1383 1.44739 90.5943 0.164062 88.7982 0.164062C88.4444 0.164062 88.0745 0.213634 87.7046 0.318283C87.1631 0.472503 86.6645 0.769926 86.2249 1.14446C85.7638 1.21606 85.2974 1.26563 84.8845 1.53552C83.4048 2.46084 82.0752 3.72764 80.7939 4.92836C79.727 5.9418 78.7245 7.02685 77.7487 8.13393C75.7812 10.3701 74.0441 12.8211 72.1409 15.1069C71.9318 15.3547 71.8031 15.6246 71.6423 15.889C69.278 15.9661 66.919 16.0046 64.5547 15.9991C63.5093 15.9991 62.4531 15.9881 61.4077 15.9881C57.7781 15.9881 54.1378 15.867 50.4975 15.9441C50.4815 15.922 50.46 15.9055 50.4386 15.8835C49.302 14.2091 48.3959 12.3254 46.9162 10.9319C46.2193 10.2765 45.5009 9.63757 44.7932 8.98214C43.9729 8.21104 43.2223 7.40138 42.4342 6.60274C41.7802 5.93629 41.051 5.34695 40.413 4.66398C39.6089 3.79374 38.3919 3.16033 37.1856 3.16033C36.8264 3.16033 36.4725 3.21541 36.124 3.33659C34.832 3.79925 34.1136 4.4657 33.3737 5.57828C33.0467 6.06297 32.8591 6.67435 32.6071 7.19208C32.1406 8.17248 31.7117 9.1639 31.2989 10.1663C31.3418 10.0617 31.3793 9.96253 31.4169 9.85788C30.6234 11.7581 29.8139 13.6253 29.1383 15.564C28.5111 17.321 27.9589 19.1001 27.3852 20.8846C26.12 24.8227 24.9244 28.7498 23.9701 32.7761C22.1312 40.5532 21.4771 48.5946 21.6058 56.5755C20.5014 57.8258 19.4077 59.0816 18.314 60.3594C16.9683 61.9291 15.6173 63.4713 14.352 65.1017C11.8108 68.4009 9.53229 71.8543 7.48965 75.4895C5.39877 79.1963 3.77431 83.2886 3.14169 87.5241C2.40184 92.4151 2.08552 97.6806 4.10671 102.307C4.43375 103.045 4.75006 103.739 5.19504 104.417C5.65611 105.105 6.20832 105.755 6.74444 106.389C7.92391 107.788 9.33928 108.823 10.9905 109.561C12.9099 110.437 14.9096 111.235 16.9898 111.593C17.1131 111.615 17.2203 111.593 17.3383 111.61C17.4991 112.695 17.7082 113.769 17.9762 114.827C18.4588 116.743 19.1343 118.577 19.8527 120.412C19.9009 120.533 19.9492 120.648 19.9974 120.764C18.0459 120.836 16.0891 120.841 14.1537 120.792C10.8512 120.709 7.53791 120.615 4.23538 120.632C1.93005 120.643 0 122.604 0 124.983C0 125.776 0.289506 126.509 0.680877 127.175C0.680877 127.208 0.659434 127.241 0.659434 127.274C0.691601 131.234 0.841715 135.195 0.841715 139.171C0.852438 141.132 0.884605 143.093 0.884605 145.054C0.884605 146.309 0.841716 147.582 1.00791 148.827C1.06153 149.251 1.15267 149.62 1.24917 149.989C1.24917 150.011 1.23845 150.027 1.23845 150.044C1.23845 152.374 3.15777 154.428 5.45238 154.384C9.52157 154.301 13.5854 154.213 17.6546 154.142C21.8363 154.059 26.0235 153.817 30.2052 153.712C34.4621 153.596 38.7296 153.618 42.9811 153.629C46.7768 153.651 50.5619 153.662 54.3523 153.574C62.3834 153.404 70.4146 153.398 78.4511 153.398C86.3374 153.387 94.2238 153.684 102.11 153.817C105.113 153.877 108.109 154.015 111.117 154.142C113.701 154.246 116.296 154.175 118.88 154.318C120.344 154.412 121.588 153.459 122.279 152.203C122.767 151.861 123.196 151.443 123.496 150.914C123.968 150.082 124.054 149.273 123.973 148.397C123.979 148.458 123.989 148.524 123.995 148.59C123.464 141.738 123.743 134.837 123.823 127.979ZM13.2423 101.487C12.7651 101.024 12.3309 100.512 11.9073 99.9939C11.5588 99.4486 11.2586 98.8813 10.9905 98.2975C10.6903 97.3556 10.4651 96.4138 10.3043 95.4389C10.122 93.3459 10.1917 91.286 10.4169 89.193C10.6903 87.4415 11.087 85.7726 11.709 84.1203C13.7998 79.1963 16.7539 74.7294 19.8795 70.4277C22.3457 67.2552 25.3158 64.4793 28.05 61.5326C28.7899 60.7284 29.1759 59.6985 29.192 58.663C29.4439 58.1287 29.6101 57.5504 29.5833 56.928C29.4815 54.4715 29.3045 52.0095 29.3153 49.542C29.326 47.1956 29.5297 44.8438 29.8031 42.5139C30.1087 40.3824 30.4572 38.2674 30.9076 36.1634C31.3901 33.8776 32.0227 31.6139 32.6821 29.3667C34.0224 24.8392 35.4861 20.3118 37.2177 15.933C37.5609 15.1179 37.9254 14.3192 38.3061 13.5206C38.6492 13.8731 38.9977 14.2256 39.3462 14.5726C40.1611 15.3712 40.9974 16.1644 41.7533 17.0291C43.0347 18.9293 44.0265 21.0113 45.6456 22.6526C46.0799 23.0877 46.5945 23.3797 47.1414 23.5779C47.7258 23.936 48.3691 24.1948 49.0768 24.1508C53.1782 23.8754 57.2902 23.6771 61.4023 23.6165C63.3592 23.5835 65.3107 23.5504 67.2675 23.5394C69.3209 23.5394 71.401 23.4898 73.4437 23.7101C74.4087 23.8148 75.5077 23.2365 76.1511 22.5645C76.3709 22.3387 76.4996 22.0523 76.6604 21.7824C77.1161 21.5786 77.545 21.3197 77.8399 20.9562C79.3678 19.0395 80.6921 16.974 82.1074 14.9692C83.496 13.1846 85.0132 11.5102 86.6538 9.96804C86.895 10.5409 87.1041 11.1247 87.3507 11.6975C88.4283 14.4184 89.3236 17.2164 90.2297 20.0034C91.2269 23.0602 92.0579 26.1556 92.8353 29.2731C93.5537 32.0876 94.2614 34.8911 94.7814 37.7552C95.3282 40.8175 95.8322 43.8964 96.2718 46.9753C96.631 49.9551 96.9098 52.9293 96.9956 55.9366C97.0385 57.3907 97.0653 58.8337 97.1618 60.2768C97.194 60.811 97.2315 61.3398 97.2744 61.8741C94.4758 62.8434 91.6397 63.6916 88.7822 64.5013C85.4046 65.4486 82.0002 66.1151 78.5368 66.6218C73.2185 67.3544 67.8572 67.481 62.496 67.5141C57.494 67.5416 52.4758 67.4645 47.506 66.8697C46.1978 66.6494 44.9004 66.3905 43.603 66.0931C42.4986 65.8342 41.3834 65.5643 40.3112 65.1677C39.3676 64.7492 38.4401 64.5729 37.3947 64.8703C36.0007 65.2614 34.8802 66.407 34.505 67.8336C34.2101 68.9296 34.3602 70.1303 34.9231 71.1107C35.2823 71.7551 35.7863 72.2564 36.3975 72.6364C37.0462 73.0164 37.7431 73.2037 38.4884 73.2147C38.5741 73.2202 38.6546 73.2257 38.7403 73.2368C40.4935 73.5011 42.2466 73.8041 44.0051 74.0464C46.0263 74.3218 48.0582 74.5091 50.0847 74.6578C50.7066 74.7073 51.3285 74.7018 51.9504 74.7294C50.9747 76.2661 50.2241 77.9129 49.6022 79.6369C48.8248 81.7629 48.5139 84.1754 48.4656 86.4336C48.3959 89.0057 49.1948 91.5449 50.3742 93.7866C51.6341 96.177 54.2933 97.7137 56.7434 98.4848C58.0998 98.9089 59.4615 99.1512 60.8662 99.3385C63.0804 99.6304 65.3053 99.4541 67.4069 98.683C70.4842 97.5539 73.5187 95.3232 74.8537 92.1617C75.3254 91.0436 75.7972 89.9256 76.0868 88.7469C76.4031 87.4635 76.5693 86.1196 76.7033 84.8033C76.848 83.3492 76.6818 81.7078 76.2637 80.3254C75.6686 78.3976 74.6231 76.8885 73.3418 75.3848C73.0791 75.0819 72.7681 74.8285 72.4733 74.5586C73.0148 74.5256 73.5616 74.5201 74.1031 74.4705C78.3814 74.0905 82.6382 73.5507 86.8628 72.741C89.3773 72.2564 91.8702 71.623 94.3579 71.0556C96.8187 70.4883 99.2795 69.9706 101.671 69.1279C102.904 68.6928 103.815 67.7564 104.287 66.6108C104.812 65.702 105.032 64.6886 104.834 63.598C104.818 63.5099 104.802 63.4273 104.785 63.3391C104.635 61.7749 104.619 60.1831 104.555 58.6244C104.485 56.7518 104.442 54.8736 104.308 52.9899C103.992 48.7103 103.386 44.4747 102.748 40.2447C102.662 39.6774 102.566 39.1101 102.486 38.5428C103.107 38.5152 103.729 38.4657 104.351 38.4712C104.614 38.5318 104.877 38.6089 105.134 38.6915C105.493 38.8788 105.826 39.0826 106.163 39.3139C106.689 39.7765 107.177 40.2778 107.627 40.8175C108.222 41.7043 108.705 42.6241 109.15 43.599C109.916 45.5983 110.602 47.6087 111.192 49.6797C111.825 51.9159 112.216 54.2457 112.57 56.559C112.951 59.748 113.176 62.9977 112.902 66.1977C112.688 67.459 112.377 68.6818 111.959 69.9045C111.916 70.0422 111.868 70.1744 111.814 70.3066C111.503 70.9124 111.262 71.5844 110.983 72.1737C110.468 73.2478 109.868 74.2612 109.187 75.2306C108.608 75.9576 108.018 76.6296 107.332 77.252C106.742 77.6761 106.115 78.0396 105.466 78.348C105.123 78.4912 104.828 78.673 104.539 78.8603C103.938 78.7281 103.322 78.6895 102.705 78.8603C101.719 79.1467 100.861 79.8186 100.346 80.7329C99.9872 81.3663 99.8049 82.0493 99.8049 82.7764C99.8049 83.3492 99.9175 83.8945 100.137 84.4067C100.186 84.5884 100.228 84.7702 100.261 84.9575C100.464 86.8962 100.614 88.835 100.899 90.7738C101.134 92.4702 101.392 94.1556 101.628 95.852C101.874 98.0937 101.955 100.319 101.896 102.577C101.842 104.676 101.526 106.752 101.252 108.829C101.258 108.779 101.263 108.729 101.274 108.674C100.754 112.618 99.8531 116.446 98.4217 120.142C97.6175 121.992 96.7758 123.821 95.6446 125.484C95.2049 126.008 94.7492 126.503 94.2506 126.966C93.8325 127.252 93.4089 127.5 92.9532 127.726C88.884 129.351 84.5575 130.43 80.2417 131.069C77.6469 131.372 75.0467 131.659 72.4411 131.912C69.8248 132.154 67.2032 132.143 64.5869 132.165C61.5631 132.176 58.5769 131.978 55.5746 131.747C52.5509 131.51 49.5218 131.405 46.5034 131.102C43.2331 130.568 40.0378 129.703 36.9336 128.503C36.2366 128.183 35.5611 127.831 34.9178 127.418C34.2369 126.779 33.615 126.063 32.9609 125.385C31.8136 124.184 30.5912 123.05 29.519 121.772C28.3074 119.927 27.4496 117.883 26.5971 115.846C25.7876 113.742 25.23 111.566 24.8815 109.33C24.6617 107.352 24.5438 105.364 24.5813 103.365C24.6295 101.123 24.8494 98.8868 25.1228 96.6506C25.5088 93.9573 25.9859 91.2805 26.4899 88.6147C27.0528 85.5468 27.8034 82.534 28.436 79.4827C28.8971 77.2685 27.8302 75.0048 25.616 74.3824C25.289 74.2888 24.9512 74.2447 24.6027 74.2447C22.8389 74.2447 20.9893 75.4179 20.6408 77.2795C20.2494 79.378 19.976 81.482 19.6275 83.5915C19.3005 85.5909 18.8769 87.5737 18.5124 89.562C17.735 93.7535 16.963 97.9505 16.7807 102.225C16.77 102.45 16.8075 102.665 16.7968 102.886C16.0462 102.676 15.2903 102.478 14.5611 102.186C14.1108 101.988 13.6658 101.756 13.2423 101.487ZM65.5948 90.6416C65.0051 90.8619 64.41 91.0436 63.7934 91.1924C63.1018 91.2364 62.4156 91.2199 61.724 91.1703C60.7107 90.9886 59.7242 90.7407 58.7485 90.3827C58.341 90.1679 57.9604 89.9311 57.5851 89.6612C57.569 89.6447 57.5529 89.6281 57.5315 89.6061C57.4135 89.3913 57.3009 89.182 57.1937 88.9672C57.0114 88.4219 56.8667 87.8711 56.7541 87.3038C56.7059 86.5933 56.7112 85.8883 56.7541 85.1778C56.9793 83.8284 57.317 82.5285 57.7835 81.2452C58.1051 80.5732 58.4536 79.9288 58.8503 79.3119C59.1559 78.9594 59.4776 78.64 59.8261 78.3315C60.3569 77.9515 60.893 77.599 61.4452 77.2685C61.8044 77.5329 62.2119 77.7477 62.6461 77.8964C62.9571 78.0011 63.2627 78.1112 63.5682 78.2269C64.5065 78.7061 65.3803 79.3064 66.2274 79.9398C66.9405 80.5622 67.5945 81.2287 68.2057 81.9557C68.3398 82.1595 68.4684 82.3578 68.581 82.5726C68.6614 82.8094 68.7311 83.0462 68.7901 83.2941C68.833 84.0101 68.8223 84.7096 68.7579 85.4256C68.5971 86.3179 68.3719 87.1716 68.0717 88.0198C67.8894 88.3999 67.6964 88.7634 67.4873 89.1214C67.1549 89.4904 66.8064 89.8264 66.4419 90.1514C66.1684 90.3221 65.8843 90.4874 65.5948 90.6416ZM108.512 146.155C104.705 146.062 100.904 146.073 97.0975 146.018C89.0878 145.891 81.0781 145.764 73.0576 145.731C69.1118 145.72 65.1605 145.698 61.2147 145.764C57.049 145.819 52.8886 145.946 48.723 145.951C45.8815 145.962 43.0293 145.962 40.1879 145.962C34.9875 145.951 29.7763 145.94 24.5813 146.023C21.4557 146.078 18.3354 146.067 15.2098 145.99C13.0171 145.935 10.8297 145.852 8.64232 145.786C8.48685 143.308 8.49221 140.818 8.49757 138.334C8.49757 135.277 8.59943 132.215 8.65304 129.158C10.4866 129.086 12.3255 129.026 14.1537 128.943C17.2096 128.805 20.2869 128.47 23.3536 128.629C23.7449 128.651 24.0988 128.53 24.458 128.42C25.1281 129.175 25.8251 129.902 26.5221 130.645C27.3102 131.466 28.0393 132.375 28.9025 133.124C29.5994 133.735 30.3071 134.324 31.1274 134.754C32.2264 135.321 33.4059 135.789 34.5639 136.219C36.3171 136.874 38.156 137.348 39.9788 137.767C42.1126 138.273 44.2785 138.714 46.4605 138.934C48.5407 139.133 50.6369 139.237 52.7171 139.419C56.6737 139.777 60.6249 140.053 64.603 140.124C66.6563 140.157 68.7472 140.3 70.7952 140.135C73.0791 139.942 75.363 139.672 77.6361 139.359C80.0541 139.056 82.4666 138.791 84.8685 138.34C87.1631 137.91 89.522 137.453 91.7523 136.715C92.8782 136.346 94.0094 135.944 95.1245 135.536C95.9126 135.25 96.6954 134.914 97.462 134.567C98.4592 134.126 99.3063 133.388 100.127 132.672C101.134 131.785 101.933 130.612 102.657 129.466C105.064 129.439 107.477 129.367 109.884 129.318C111.836 129.274 113.771 129.285 115.701 129.461C115.749 132.716 115.921 135.966 115.964 139.221C115.985 140.994 116.023 142.762 116.044 144.53C116.049 145.087 116.044 145.643 116.044 146.205C113.53 146.254 111.01 146.221 108.512 146.155ZM36.5422 52.8797C34.9231 51.2164 34.9017 48.4018 36.5422 46.7385C37.518 45.7581 38.5849 44.8933 39.7 44.0617C40.2415 43.6596 40.7991 43.2795 41.4102 42.9986C43.0079 42.2716 44.8307 41.8805 46.6053 41.8805C46.8573 41.8805 47.1039 41.8861 47.3505 41.9026C48.337 41.9632 49.3395 42.0788 50.2831 42.3432C51.4089 42.6516 52.4866 43.3016 53.5159 43.8689C54.4381 44.3976 55.3227 44.9429 56.1697 45.5763C57.0597 46.2593 57.7513 46.9533 58.0569 48.0934C58.3464 49.1895 58.1909 50.3681 57.6387 51.3375C57.1079 52.2849 56.2126 52.9899 55.1886 53.2763C54.2343 53.5517 52.8618 53.4966 52.0309 52.8577C51.6234 52.5438 51.2213 52.2188 50.8192 51.8938C49.9936 51.288 49.0983 50.7978 48.1868 50.3516C48.0635 50.3186 47.9402 50.2855 47.8169 50.258C47.2379 50.2194 46.6643 50.2249 46.0852 50.269C45.7636 50.3296 45.4473 50.4012 45.1363 50.5003C45.0452 50.5554 44.9594 50.6105 44.8682 50.6656C44.048 51.3596 43.2706 52.1031 42.52 52.8797C40.9009 54.5651 38.1613 54.5431 36.5422 52.8797ZM66.4687 51.4532C66.1899 50.4398 66.2328 48.9581 66.8869 48.0824C67.5624 47.1846 68.1789 46.3033 69.0421 45.5873C69.7819 44.976 70.5379 44.3756 71.3796 43.8909C73.3096 42.8059 75.5721 42.2386 77.7594 42.1009C78.0865 42.0733 78.4082 42.0678 78.7352 42.0678C80.9923 42.0678 83.2601 42.5305 85.3939 43.2134C86.257 43.4999 87.1363 43.8358 87.8976 44.3536C88.439 44.7446 88.9752 45.1522 89.5274 45.5433C90.7605 46.419 91.5915 47.6418 91.5915 49.239C91.5915 50.3681 91.1518 51.4642 90.3691 52.2628C88.6964 53.9813 86.1552 53.8216 84.4717 52.2628C84.0643 51.8828 83.6568 51.4973 83.2386 51.1227C83.1636 51.0732 83.0832 51.0236 83.0027 50.985C82.1503 50.6876 81.2711 50.4618 80.3918 50.3021C79.6573 50.247 78.9228 50.2305 78.1883 50.28C77.4431 50.4287 76.7301 50.638 76.0117 50.9024C75.8026 51.0126 75.5989 51.1337 75.4005 51.2659C74.9609 51.6625 74.5642 52.0921 74.1942 52.5548C73.5026 53.4746 72.8486 54.1741 71.6959 54.499C70.5968 54.813 69.4066 54.6477 68.4255 54.0584C67.4659 53.4856 66.7582 52.5382 66.4687 51.4532Z" fill="#111918"/>
</svg>
