<svg width="91" height="102" viewBox="0 0 91 102" fill="none" xmlns="http://www.w3.org/2000/svg">
<path d="M89.8603 77.8431C89.7204 74.827 89.6415 71.8144 89.62 68.7982C89.5698 62.5435 89.6057 56.2852 89.5483 50.0376C89.5196 46.9533 89.5339 43.8582 89.4981 40.7739C89.4837 39.2138 89.5053 37.6466 89.4694 36.0793C89.4407 34.5336 89.3295 32.9878 89.2721 31.4313C89.161 28.2753 89.1179 25.112 89.0749 21.956C89.039 18.8932 88.8848 15.8411 88.8274 12.7855C88.77 9.81954 88.8489 6.85357 88.8633 3.88761C88.8705 2.27013 87.5076 0.914465 85.8973 0.914465C85.302 0.914465 84.7712 1.144 84.2978 1.45601C84.2296 1.45243 84.1722 1.41656 84.1041 1.41656C82.7269 1.44525 81.3569 1.3807 79.9797 1.35201C78.5595 1.32332 77.1464 1.33049 75.7298 1.30897C74.3598 1.29463 72.9826 1.28745 71.6126 1.21572C70.178 1.15117 68.7471 1.06151 67.3125 1.01847C61.4379 0.842736 55.5562 0.778181 49.6816 0.907292C47.2321 0.957502 44.7826 1.06868 42.3295 1.06151C39.8656 1.05434 37.3946 1.02564 34.9307 0.928811C33.7077 0.885774 32.4884 0.806873 31.2654 0.796114C30.9928 0.788941 30.7203 0.78894 30.4441 0.78894C29.5367 0.78894 28.6258 0.803286 27.7148 0.814045C24.8278 0.849909 21.9443 0.910879 19.0572 0.996953C18.6627 1.00771 18.2861 1.09379 17.9383 1.24083C17.6334 1.12965 17.3142 1.04358 16.9771 1.04358C15.3811 1.04358 14.1259 2.35621 14.0972 3.93064C14.0434 6.86433 14.0291 9.79802 14.0147 12.7317C12.8563 12.7963 11.6979 12.8106 10.5395 12.7963C9.05828 12.7748 7.57351 12.7425 6.08873 12.721C5.92375 12.6385 5.7803 12.5237 5.60098 12.4735C5.33558 12.4018 5.06301 12.3659 4.79403 12.3659C4.25607 12.3659 3.72169 12.5058 3.25546 12.7819C2.62783 13.1477 1.99304 13.8543 1.85675 14.5967C1.51963 16.4723 1.26499 18.3552 1.10361 20.2488C0.978081 21.7265 1.04264 23.222 1.06057 24.7032C1.11078 27.8521 1.15381 31.0009 1.1323 34.1498C1.11078 37.2413 1.08926 40.3364 1.15382 43.4279C1.21837 46.4871 1.29369 49.5427 1.32238 52.6019C1.36541 58.81 1.20402 65.0002 1.09643 71.2011C1.03905 74.35 1.0534 77.4988 1.03905 80.6477C1.0247 82.1863 1.01753 83.7249 0.974494 85.267C0.931457 86.7088 0.974494 88.1541 0.917111 89.5958C0.834624 91.4141 0.809519 93.2468 0.637371 95.0651C0.346871 95.725 0.285902 96.4818 0.479568 97.1811C0.644544 97.7836 1.08567 98.4148 1.6344 98.8093C1.97511 100.025 3.0582 100.95 4.37083 100.95C7.3368 100.95 10.2956 100.768 13.2616 100.646C16.1486 100.527 19.0393 100.534 21.9264 100.527C27.5893 100.52 33.2594 100.484 38.9296 100.549C44.5782 100.613 50.2268 100.563 55.8754 100.635C58.7051 100.678 61.5455 100.742 64.3716 100.904C65.6914 100.976 67.0041 101.044 68.3274 101.108C69.5576 101.166 70.7913 101.144 72.0215 101.194C72.1219 101.201 72.2115 101.201 72.3048 101.209C72.875 101.237 73.3807 101.015 73.8254 100.703C74.3993 100.592 74.9444 100.366 75.364 99.9498C76.1494 99.1644 76.3252 98.1423 76.1207 97.0915C76.11 97.0305 76.0992 96.9695 76.0885 96.905C75.9558 95.3664 76.0454 93.8063 76.0849 92.2677C76.1315 90.6718 76.2176 89.0722 76.2965 87.4727C77.0927 87.505 77.8924 87.5336 78.6886 87.5659C80.6862 87.652 82.6767 87.8385 84.6672 88.0035C84.7461 88.1111 84.7748 88.2294 84.8788 88.3298C85.4777 88.9288 86.3062 89.2766 87.1526 89.2766C87.999 89.2766 88.8202 88.9324 89.4192 88.3298C89.9787 87.7775 90.4377 86.8666 90.3588 86.0632C90.1078 83.3304 89.9894 80.5832 89.8603 77.8431ZM68.5642 95.5421C67.2013 95.5493 65.8385 95.5636 64.4756 95.5565C63.163 95.5493 61.8432 95.4776 60.527 95.456C59.0637 95.4345 57.6041 95.4058 56.1408 95.3843C54.5018 95.3556 52.8628 95.3843 51.2274 95.4058C50.0475 95.4274 48.8675 95.4489 47.6912 95.4417C44.8507 95.4274 42.0211 95.3771 39.1842 95.309C36.3043 95.2373 33.4137 95.2731 30.5338 95.2516C27.7292 95.2229 24.9354 95.2301 22.1308 95.2229C19.1935 95.2229 16.2562 95.2158 13.3189 95.1942C12.0637 95.1871 10.8049 95.1942 9.54962 95.1942C8.66378 95.1978 7.77793 95.1871 6.89209 95.1871C6.89926 94.624 6.90284 94.0573 6.91002 93.4943C6.93154 92.0454 6.98892 90.5929 7.01761 89.1368C7.06782 86.1852 7.06065 83.2407 7.02478 80.2891C6.96023 74.081 7.06065 67.8765 7.11803 61.6684C7.17541 55.3204 7.01044 48.9725 6.97099 42.6245C6.92795 36.4236 6.89209 30.2191 6.86339 24.011C6.86339 22.5908 6.96023 21.1777 7.1252 19.7719C7.18976 19.3451 7.26866 18.9255 7.34039 18.5023C8.32307 18.4915 9.30216 18.4843 10.2848 18.4736C11.0631 18.4664 11.8378 18.4592 12.6088 18.4592C12.8204 18.4592 13.032 18.4664 13.2436 18.4664C13.4839 18.4736 13.7314 18.4556 13.9753 18.4485C13.9681 20.2488 13.9645 22.0492 13.943 23.8496C13.8641 30.1617 14.0685 36.4666 13.9286 42.7823C13.8569 45.7124 13.7242 48.6425 13.7242 51.5726C13.7242 54.7 13.7816 57.8202 13.8713 60.9511C13.9645 63.9601 14.1259 66.962 14.2299 69.9602C14.3411 72.9907 14.3231 76.0177 14.3913 79.0482C14.4272 80.4756 14.3913 81.9066 14.7177 83.2981C14.9615 84.3238 15.7792 85.0339 16.7332 85.3639C17.2676 86.1493 18.1283 86.6944 19.1397 86.7195C22.4177 86.7841 25.6921 86.7339 28.9701 86.6335C32.0078 86.5402 35.0347 86.5223 38.0724 86.5223C39.0766 86.5295 40.0844 86.5294 41.0958 86.5294C45.9733 86.5294 50.8472 86.5295 55.7248 86.6621C58.2962 86.7339 60.8569 86.9813 63.4284 87.0638C65.7847 87.1391 68.1481 87.1642 70.5044 87.2539C70.4255 90.0226 70.404 92.7949 70.3753 95.5672C70.3036 95.5672 70.2318 95.5672 70.1601 95.5672C69.6329 95.5493 69.0949 95.5421 68.5642 95.5421ZM77.3903 81.6627C74.5786 81.5909 71.7704 81.4511 68.9587 81.4296C65.9066 81.4009 62.8725 81.365 59.8205 81.1821C56.8617 81.0064 53.8885 80.9203 50.9154 80.8988C48.2614 80.8844 45.6039 80.9275 42.9428 80.9275C40.4359 80.9275 37.9218 80.9275 35.4149 80.9418C32.8721 80.9562 30.3222 80.9848 27.783 80.9848C25.4124 80.9848 23.0417 80.9024 20.6711 80.827C20.5205 78.3094 20.5061 75.7953 20.4344 73.274C20.3483 70.1969 20.1654 67.109 19.9897 64.0318C19.6526 57.917 19.6239 51.7591 19.7279 45.6299C19.7566 44.1882 19.8391 42.75 19.8211 41.3083C19.8068 39.7123 19.7494 38.1164 19.7099 36.5204C19.631 33.3644 19.5844 30.2083 19.5772 27.0595C19.5772 20.5645 19.5629 14.073 19.753 7.5852C19.7602 7.30905 19.7673 7.04007 19.7781 6.7675C22.8696 6.65274 25.9575 6.50569 29.0454 6.41962C30.5122 6.37658 31.9755 6.3981 33.4388 6.48417C34.8375 6.57025 36.2433 6.69577 37.6456 6.73881C40.6044 6.83206 43.556 6.80336 46.5148 6.7675C48.3439 6.74598 50.173 6.74598 52.0021 6.74598C53.1031 6.74598 54.197 6.74598 55.298 6.73881C60.1648 6.72446 65.0566 6.74598 69.9091 7.09386C72.2833 7.26243 74.6611 7.26243 77.0424 7.27677C79.0222 7.28753 80.9983 7.32698 82.978 7.38795C83.0425 12.6241 83.1609 17.8603 83.1716 23.0965C83.1716 24.5848 83.1429 26.0768 83.1286 27.5651C83.1142 29.1683 83.1788 30.7642 83.2075 32.3602C83.2649 35.5019 83.3474 38.6364 83.333 41.7745C83.3115 48.0436 83.29 54.3234 83.2756 60.5925C83.2685 66.6643 83.2111 72.7433 83.5159 78.8043C83.5697 79.8623 83.6415 80.9131 83.7024 81.9711C81.5972 81.842 79.492 81.7129 77.3903 81.6627ZM76.9349 41.7207C76.8344 36.1977 76.5762 30.6853 76.4686 25.1694C76.4041 21.956 76.4901 18.7426 76.587 15.5363C76.63 14.1161 75.3712 12.9397 73.9868 12.9397C73.8434 12.9397 73.725 12.9971 73.5887 13.0186C73.1368 12.7066 72.6168 12.4556 72.086 12.4556C72.0286 12.4556 71.9748 12.4591 71.9175 12.4627C70.074 12.6313 68.2306 12.6241 66.38 12.6169C65.548 12.6169 64.7123 12.6169 63.8875 12.6241C62.2269 12.6528 60.5772 12.6385 58.9239 12.6169C57.683 12.6098 56.4385 12.5954 55.2012 12.5954C52.0523 12.6098 48.8962 12.703 45.7474 12.7568C42.871 12.8106 39.9983 12.7676 37.1184 12.7389C34.4573 12.7102 31.7926 12.6887 29.1315 12.6815C28.2026 12.6815 27.3992 13.1657 26.8613 13.8614C26.3628 14.3599 26.0507 15.045 26.0436 15.7981C25.9862 21.6081 25.8893 27.4217 25.9109 33.2317C25.9324 38.7619 25.6562 44.2671 25.3048 49.783C25.1505 52.3258 25.1075 54.8829 24.8314 57.4077C24.7525 58.1286 25.1828 58.9606 25.6777 59.4556C25.9718 59.7497 26.3341 59.9577 26.725 60.0975C27.1338 60.3235 27.5786 60.4849 28.0735 60.4885C29.6121 60.5028 31.1506 60.5028 32.6928 60.4956C34.3748 60.4885 36.0533 60.4885 37.7353 60.5028C40.8124 60.5387 43.8932 60.5315 46.9703 60.5315C50.0008 60.5315 53.0206 60.5387 56.0511 60.5889C59.1211 60.6391 62.1803 60.7861 65.2431 60.9152C68.0764 61.0264 70.9276 61.0623 73.7609 61.3241C74.532 61.3958 75.3927 60.9583 75.9199 60.4275C76.092 60.2553 76.1925 60.033 76.318 59.825C76.9815 59.3014 77.4405 58.5339 77.419 57.648C77.3473 55.1053 77.15 52.5697 77.0855 50.0269C77.0173 47.2618 76.9815 44.4966 76.9349 41.7207ZM39.1591 18.366C42.1896 18.2942 45.2166 18.1472 48.2471 18.0683C51.3063 17.9966 54.3691 17.95 57.4283 18.0683C60.258 18.1759 63.0913 18.4162 65.9281 18.4628C67.7536 18.4951 69.5827 18.5919 71.4082 18.5381C71.3974 20.733 71.3687 22.9279 71.4476 25.1264C71.548 27.8162 71.6449 30.4988 71.7094 33.1815C71.7812 36.5957 71.774 40.01 71.7489 43.4243C71.6628 43.3239 71.5624 43.2378 71.4763 43.1374C70.5367 42.0579 69.5683 41.0035 68.5893 39.9741C68.1051 39.4613 67.438 39.2138 66.7674 39.2138C66.0788 39.2138 65.3902 39.4756 64.8917 39.9741C64.594 40.2718 64.4147 40.6269 64.2891 40.9999C63.5683 40.7488 62.7685 40.7596 62.1122 41.2007C61.004 41.9431 59.9029 42.6962 58.7876 43.4315C57.9161 44.0017 57.084 44.6329 56.1767 45.1422C56.1516 45.1242 56.1229 45.1063 56.0978 45.0884C55.775 44.7835 55.4952 44.4536 55.2227 44.1057C53.8527 42.3125 52.4575 40.5372 51.0517 38.7691C50.3882 37.9084 49.7247 37.0405 49.0433 36.1977C48.7384 35.8175 48.4228 35.4553 48.1036 35.0966C47.806 34.7703 47.519 34.4475 47.2214 34.1283C46.6762 33.5652 46.0558 33.1743 45.3349 32.8838C44.9655 32.7332 44.5925 32.6758 44.2124 32.6758C43.947 32.6758 43.6816 32.7045 43.409 32.7511C42.7383 32.8551 42.2865 33.2675 41.77 33.6692C41.4185 33.9454 41.1065 34.2825 40.773 34.5802C39.9947 35.3082 39.1914 36.0219 38.3916 36.7356C36.0282 38.8337 33.6253 40.8923 31.2367 42.9652C31.2546 42.5097 31.2726 42.0579 31.2905 41.6024C31.3981 38.7297 31.4304 35.8498 31.3909 32.9735C31.3551 30.2621 31.1291 27.5508 31.2152 24.8323C31.2833 22.7163 31.3658 20.6039 31.4375 18.4879C34.009 18.4592 36.5841 18.4305 39.1591 18.366ZM48.7277 44.3388C48.8747 44.5325 49.0218 44.719 49.1652 44.9091C49.0648 44.7764 48.9608 44.6437 48.8568 44.5074C48.8137 44.4536 48.7707 44.3962 48.7277 44.3388ZM56.2089 55.1662C50.13 55.2595 44.051 55.2164 37.9756 54.9977C35.5583 54.9116 33.1447 54.8542 30.7274 54.7968C30.7956 53.3407 30.8637 51.8846 30.9354 50.425C31.1865 50.2995 31.4375 50.1668 31.6527 49.9659C33.9839 47.8141 36.3115 45.6586 38.6427 43.5104C40.4143 41.8678 42.1143 40.1499 43.9613 38.5934C44.7216 39.3573 45.4174 40.2144 46.0809 41.0321C47.0169 42.1977 47.9638 43.3597 48.8819 44.5432C49.6279 45.5403 50.338 46.5445 51.0301 47.5774C51.4462 48.1978 51.8909 48.8075 52.4432 49.3132C52.8018 49.6539 53.2071 49.948 53.6016 50.2457C54.6955 51.0562 56.0942 51.1781 57.3709 50.8302C58.246 50.5899 59.0709 50.0125 59.7918 49.4746C60.3548 49.0514 60.9215 48.6282 61.4846 48.1978C62.5712 47.3873 63.6723 46.5803 64.8092 45.8308C65.2718 45.5295 65.591 45.0956 65.8205 44.6293C67.3197 46.1607 68.826 47.6957 70.2139 49.3239C70.5941 49.7687 71.1356 49.9623 71.6951 50.0197C71.6807 51.7591 71.7059 53.4949 71.7238 55.2344C69.6473 55.2702 67.5743 55.324 65.5013 55.2738C62.4027 55.2093 59.3148 55.116 56.2089 55.1662ZM55.5096 35.7493C56.3631 36.3017 57.3458 36.6962 58.3464 36.9006C59.5909 37.1552 60.7458 37.062 61.9544 36.6818C62.7793 36.4128 63.6077 36.1044 64.3824 35.7135C65.0602 35.3656 65.6735 34.781 66.1756 34.2108C66.6849 33.6334 67.1224 32.995 67.4308 32.2885C68.0298 30.8969 68.3848 29.3584 68.2629 27.8341C68.1983 27.063 68.1015 26.2955 67.854 25.5603C67.6927 25.1013 67.4954 24.6494 67.2838 24.2118C66.8463 23.3224 66.1254 22.7414 65.3292 22.1927C64.8988 21.895 64.3967 21.7121 63.9807 21.4037C63.9269 21.3642 63.8695 21.3284 63.8121 21.2925C63.31 20.9518 62.7613 20.837 62.1158 20.7509C61.3519 20.6577 60.5951 20.5967 59.8169 20.5967C59.7738 20.5967 59.7344 20.5967 59.6913 20.5967C59.0422 20.6111 58.3715 20.7509 57.7583 20.9554C56.9047 21.2244 56.2878 21.7049 55.6028 22.2465C54.6704 22.9889 54.014 24.0971 53.4474 25.1192C52.5795 26.7187 52.0487 28.5478 52.2531 30.3769C52.4934 32.5001 53.6805 34.5909 55.5096 35.7493ZM58.411 29.136C58.4755 28.8491 58.558 28.5729 58.6585 28.2968C58.9274 27.7373 59.2395 27.1993 59.5873 26.6901C59.6447 26.6255 59.7021 26.5645 59.7595 26.5036C59.781 26.4964 59.8061 26.4928 59.8276 26.4856C59.9962 26.4785 60.1612 26.4785 60.3297 26.4856C60.4732 26.6183 60.631 26.7367 60.796 26.8479C61.1295 27.0666 61.4774 27.2567 61.8145 27.4575C61.8934 27.6978 61.9616 27.9417 62.0189 28.1928C62.0333 28.4761 62.0333 28.7558 62.0118 29.0356C61.9651 29.2615 61.9078 29.4839 61.836 29.7062C61.7715 29.821 61.7069 29.9358 61.6352 30.0469C61.5455 30.1438 61.4559 30.237 61.359 30.3303C61.3016 30.3661 61.2407 30.402 61.1797 30.4343C60.735 30.5849 60.2759 30.714 59.8133 30.818C59.6232 30.7714 59.4403 30.7176 59.2538 30.6566C59.1211 30.5885 58.9956 30.5204 58.8665 30.445C58.8091 30.3912 58.7517 30.3374 58.6943 30.2801C58.619 30.1545 58.5473 30.029 58.4791 29.8999C58.4504 29.8102 58.4218 29.7206 58.3966 29.6309C58.4038 29.4659 58.4038 29.301 58.411 29.136Z" fill="#111918"/>
</svg>
