<svg width="76" height="124" viewBox="0 0 76 124" fill="none" xmlns="http://www.w3.org/2000/svg">
<path d="M74.9177 56.9437C74.711 55.5303 74.2399 54.0591 73.4795 52.8441C72.5703 51.3812 71.1652 50.1083 69.6196 49.3231C68.6443 48.8272 67.5781 48.4718 66.5036 48.2569C65.7597 48.1081 64.9993 47.9924 64.2472 47.9676C64.2017 47.9676 64.1604 47.9676 64.1149 47.9676C63.5859 47.9676 63.0446 48.0585 62.5073 48.1536C62.1065 47.2403 61.6353 46.3683 60.9204 45.6161C60.1434 44.7896 59.1681 44.0788 58.1267 43.6159C56.8704 43.0539 55.7132 42.6985 54.3247 42.6158C54.2131 42.6076 54.1015 42.6034 53.9899 42.6034C53.0022 42.6034 52.0228 42.8803 51.0516 43.0208C50.8574 43.0497 50.6756 43.1779 50.4896 43.2729C50.0391 42.5249 49.6424 41.748 49.1547 41.0289C48.0389 39.3676 47.0058 37.6566 45.9561 35.954C45.8238 35.7391 45.6007 35.6317 45.4312 35.454C45.5635 35.2515 45.6916 35.0448 45.8238 34.8465C46.6917 33.5405 47.5761 32.2429 48.4274 30.9204C49.2457 29.6476 49.9813 28.3169 50.7417 27.0027C52.3369 24.2256 53.6759 21.2831 54.7999 18.2869C55.3207 16.8984 55.7174 15.4767 55.9736 14.0138C56.1141 13.1955 56.2298 12.3773 56.1389 11.5507C56.0728 11.0052 55.9984 10.4515 55.9075 9.90595C55.7835 9.2034 55.4942 8.51738 55.1884 7.87269C54.5272 6.47585 53.4114 5.4179 52.2377 4.45086C51.7005 4.0128 51.1715 3.55821 50.6177 3.14494C50.0639 2.72341 49.3862 2.46719 48.7332 2.25229C48.1753 2.06632 47.6091 1.99607 47.043 1.99607C46.2495 1.99607 45.4519 2.13658 44.6708 2.29362C43.836 2.46719 43.0095 2.67382 42.2078 2.95484C39.629 3.87229 37.5048 5.52534 35.5625 7.3933C34.0871 8.8108 32.7895 10.4101 31.5207 12.0219C30.8595 11.0755 30.1942 10.1291 29.5412 9.1786C28.5163 7.69085 27.4253 6.2031 26.2434 4.83933C25.9541 4.51698 25.6152 4.23596 25.3011 3.93841C24.8135 3.47555 24.3258 3.0127 23.8216 2.56637C23.086 1.91341 22.3008 1.16954 21.3916 0.772805C20.3502 0.309948 19.6807 0.152908 18.5401 0.0206632C18.3376 0.00826527 18.131 0 17.9202 0C17.1929 0 16.4366 0.12398 15.7588 0.289285C14.8166 0.512448 13.9074 0.991834 13.114 1.54561C11.2625 2.85152 9.77478 4.65749 9.13835 6.86432C8.66723 8.52564 8.50192 10.3275 8.49366 12.0467C8.47713 13.9559 8.59284 15.8156 9.17141 17.6423C9.76651 19.5143 10.56 21.3492 11.37 23.1428C12.0891 24.738 12.9073 26.3084 13.6843 27.8788C14.5521 29.6476 15.42 31.4246 16.3292 33.1851C16.4035 33.3298 16.5399 33.4166 16.6391 33.5405C15.8994 34.7183 15.1761 35.9044 14.5356 37.1401C12.9404 40.2313 11.4526 43.3928 10.0971 46.5914C9.34498 48.3685 8.64243 50.1538 8.01427 51.9887C7.4109 53.7492 6.88193 55.5345 6.30336 57.3032C6.15458 57.7661 6.14632 58.2372 6.2207 58.6959C5.79504 59.1671 5.39831 59.6712 5.03877 60.1754C4.6255 60.7623 4.21224 61.3491 3.82377 61.9525C3.11295 63.0352 2.57571 64.2006 2.0302 65.366C1.31112 66.9282 0.749082 68.5068 0.377144 70.1847C0.0547975 71.6228 -0.060915 73.0114 0.0300032 74.4744C0.0961255 75.7142 0.344084 76.954 0.608573 78.169C0.864797 79.384 1.15408 80.6155 1.57561 81.7892C2.02194 83.0455 2.47653 84.2853 2.8402 85.5664C3.6502 88.4758 4.61724 91.348 5.61734 94.1995C4.51805 94.7615 3.74112 95.8815 3.72872 97.1915C3.71219 99.3818 3.75351 101.564 3.77831 103.754C3.80311 105.87 3.77831 107.978 3.78658 110.094C3.80311 112.019 3.8527 113.937 3.86096 115.863C3.86096 116.631 3.89402 117.4 3.90229 118.161C3.91882 118.83 3.90229 119.5 3.96841 120.161C4.05106 121.062 4.26596 121.822 4.92719 122.483C5.0553 122.611 5.22887 122.678 5.37765 122.785C5.99754 123.512 6.88606 124.004 7.89856 124C9.60121 123.983 11.2956 123.917 12.99 123.876C13.6843 123.868 14.3785 123.868 15.0811 123.868C15.8498 123.868 16.6267 123.868 17.4119 123.843C20.561 123.752 23.7101 123.62 26.8633 123.57C29.6569 123.537 32.4506 123.554 35.2401 123.57C38.4884 123.587 41.7366 123.603 44.9808 123.537C48.0968 123.471 51.2293 123.364 54.3412 123.488C55.0148 123.512 55.6099 123.244 56.1265 122.868C56.9448 122.839 57.73 122.516 58.3168 121.938C58.7136 121.533 58.9946 121.053 59.1516 120.5C59.3087 119.921 59.3087 119.351 59.1516 118.772C59.1185 118.59 59.0855 118.413 59.0566 118.235C58.9284 116.863 58.9243 115.483 58.8541 114.115C58.7714 112.42 58.7301 110.726 58.6309 109.04C58.5234 107.329 58.4243 105.618 58.3912 103.907C58.3499 101.857 58.3829 99.7992 58.3995 97.7494C58.4119 96.4146 57.5647 95.2533 56.3951 94.7533C55.8868 94.0796 55.1512 93.625 54.2999 93.5796C54.5272 92.9266 54.7917 92.2943 55.0107 91.6248C55.5479 89.9635 56.1348 88.3353 56.5976 86.6491C57.0109 85.1697 57.4986 83.7232 57.8705 82.2355C58.2176 80.8345 58.5648 79.4377 58.9078 78.0408C60.0319 78.2805 61.1973 78.3797 62.3007 78.0532C63.3752 77.7474 64.4249 77.1027 65.3423 76.4828C65.9539 76.0696 66.5821 75.7142 67.2185 75.3422C68.0699 74.838 68.8551 74.2099 69.5411 73.4991C70.5494 72.4659 71.3594 71.3005 72.0785 70.0524C72.7811 68.8374 73.4588 67.639 73.9961 66.3413C74.2275 65.7793 74.4424 65.209 74.6242 64.6304C74.8722 63.8535 74.9383 63.0187 75.0458 62.217C75.2648 60.4564 75.1821 58.6959 74.9177 56.9437ZM53.5767 49.133C53.8205 49.1206 54.0602 49.1206 54.304 49.133C54.6388 49.2033 54.9652 49.29 55.2876 49.4016C55.5273 49.5256 55.7546 49.662 55.9777 49.8149C56.1802 49.9885 56.3745 50.1744 56.5604 50.3728C56.6844 50.5712 56.796 50.7737 56.8993 50.9844C57.1431 51.6291 57.3415 52.2862 57.4944 52.964C57.5357 53.7202 57.4614 54.4889 57.3746 55.2369C57.263 55.8981 57.106 56.5139 56.8704 57.1421C56.3414 58.2909 55.738 59.415 55.1099 60.5226C54.5644 61.4979 53.9817 62.4608 53.3328 63.3741C53.0312 63.7295 52.7253 64.0725 52.3782 64.3866C52.0393 64.6263 51.6881 64.8536 51.3202 65.0478C51.0186 65.147 50.7169 65.2296 50.4069 65.2958C50.2458 65.2999 50.0805 65.2958 49.9193 65.2875C49.6341 65.2255 49.3531 65.147 49.0762 65.0519C48.9812 65.0023 48.8903 64.9528 48.7993 64.8949C48.7249 64.8246 48.6506 64.7503 48.5803 64.6759C48.5638 64.6469 48.5472 64.618 48.5307 64.5891C48.4522 64.3535 48.3902 64.1138 48.3365 63.8659C48.2828 63.122 48.3158 62.3947 48.4026 61.6466C48.3943 61.7004 48.3861 61.7582 48.3778 61.8161C48.4687 61.0846 48.5555 60.3531 48.6506 59.6217C48.8117 58.6753 49.0597 57.7413 49.2415 56.7991C49.4068 55.9395 49.5887 55.0799 49.787 54.2285C50.035 53.121 50.2995 52.0052 50.721 50.9555C50.9359 50.4183 51.1591 49.881 51.3864 49.3438C51.8327 49.4016 52.2873 49.3686 52.7708 49.2859C53.0436 49.2363 53.308 49.1826 53.5767 49.133ZM15.2216 14.5014C15.0646 12.9352 15.0522 11.3482 15.2133 9.77783C15.296 9.3687 15.391 8.96784 15.5192 8.5711C15.6266 8.3686 15.7382 8.17437 15.8622 7.98013C16.0688 7.74044 16.2837 7.51315 16.5151 7.29825C16.7507 7.14534 16.9904 7.00483 17.2383 6.87259C17.3871 6.82713 17.54 6.78993 17.6929 6.75687C17.9078 6.74447 18.1227 6.74034 18.3376 6.74447C18.4409 6.80646 18.5401 6.86845 18.6393 6.93871C20.0733 8.13304 21.3379 9.42656 22.5157 10.8771C24.1564 13.0757 25.6317 15.3858 27.3137 17.5472C26.4169 18.7457 25.4871 19.9235 24.6275 21.1426C23.2472 23.0932 22.0033 25.1306 20.7304 27.1556C20.2138 26.2216 19.6973 25.2876 19.1931 24.3537C18.3335 22.775 17.5937 21.1261 16.8664 19.4854C16.201 17.8654 15.5563 16.2165 15.2216 14.5014ZM15.9448 48.9512C16.9862 46.5336 18.0525 44.1284 19.2757 41.7976C20.6726 39.1196 22.1934 36.516 23.8382 33.9869C25.3838 31.6147 26.8881 29.2095 28.4502 26.8498C29.8512 24.7297 31.3554 22.6758 32.9011 20.6632C34.3557 18.7994 35.8642 16.9521 37.4594 15.1999C38.8727 13.6543 40.3233 12.1458 41.9474 10.8151C42.6376 10.3151 43.369 9.85222 44.1336 9.47615C45.0097 9.15381 45.9065 8.90998 46.8239 8.73228C46.8611 8.73228 46.8942 8.73228 46.9314 8.72814C46.9355 8.72814 46.9438 8.73228 46.9479 8.73228C47.0802 8.8108 47.2041 8.89758 47.324 8.9885C47.9604 9.50095 48.5844 10.0258 49.1299 10.6416C49.1713 10.7118 49.2126 10.7862 49.2498 10.8565C49.3531 11.1705 49.4316 11.4887 49.4936 11.8111C49.5184 12.1458 49.5184 12.4765 49.4978 12.8195C49.2787 14.1543 48.9646 15.4396 48.5183 16.7372C48.0596 18.0927 47.5141 19.4234 46.9603 20.7417C45.1006 24.8413 42.6004 28.6475 40.22 32.4619C39.0628 34.3133 37.8974 36.1317 36.6246 37.917C35.4633 39.5494 34.2607 41.1653 33.0457 42.7563C32.5209 43.4217 32.0001 44.0705 31.3513 44.616C30.0702 45.6988 30.2438 47.8477 31.3513 48.9553C32.4919 50.0959 34.5582 50.1868 35.6906 48.9553C36.6328 47.9304 37.4346 46.765 38.2859 45.6574C39.1868 44.4755 40.0712 43.2853 40.939 42.0786C41.1622 41.7686 41.3812 41.4504 41.6044 41.1363C42.3193 42.153 43.026 43.1737 43.6418 44.2441C44.2286 45.2772 44.7328 46.3269 45.4106 47.3022C45.4147 47.3064 45.4188 47.3105 45.423 47.3188C45.0965 48.1949 44.7493 49.0586 44.4807 49.9513C44.117 51.1415 43.8526 52.373 43.5881 53.588C43.3649 54.5964 43.1748 55.613 42.9351 56.6214C42.588 58.076 42.464 59.5721 42.2656 61.0515C42.1251 62.1591 42.0342 63.2832 42.183 64.399C42.3648 65.7545 42.5962 67.1348 43.4228 68.2754C44.3898 69.6144 45.6131 70.5484 47.1504 71.1517C48.3241 71.6063 49.7209 71.8543 50.969 71.7055C51.3161 71.6642 51.6302 71.5485 51.9649 71.4782C52.2418 72.3998 52.6096 73.2842 53.1262 74.0818C53.0601 74.2388 52.9609 74.3793 52.9237 74.5529C52.527 76.3795 52.1468 78.2144 51.7914 80.0493C51.5351 81.347 51.1549 82.595 50.783 83.8596C49.9854 86.6037 49.2457 89.4056 48.1836 92.067C48.0472 92.3563 47.9026 92.6415 47.7579 92.9308C47.6339 93.1787 47.5885 93.4391 47.5223 93.6994C47.0016 93.716 46.4809 93.7325 45.9602 93.7408C43.0426 93.7821 40.1332 93.8151 37.2197 93.8069C36.1121 93.8069 35.0046 93.8069 33.897 93.8151C31.9051 93.8151 29.9132 93.8234 27.9212 93.7903C24.7226 93.749 21.5239 93.5755 18.3294 93.4845C16.3829 93.4308 14.4405 93.3275 12.4941 93.2407C12.4693 93.125 12.5023 93.0051 12.4569 92.8894C11.7543 90.9801 11.0435 89.0791 10.3575 87.1699C9.79544 85.5747 9.33259 83.9547 8.83667 82.3512C8.39861 80.9544 7.88616 79.5989 7.51422 78.1855C7.22907 77.0862 6.94392 75.9828 6.75795 74.867C6.67116 74.1066 6.63397 73.3503 6.68769 72.594C6.93565 71.2592 7.25386 69.9657 7.74978 68.7011C8.52672 66.9116 9.46896 65.1346 10.6096 63.5518C10.8451 63.2625 11.0931 62.9815 11.3576 62.7211C11.6799 62.5145 12.0105 62.3244 12.3494 62.1467C13.4528 61.7541 14.6017 61.4813 15.763 61.2954C18.4988 60.9772 21.2057 60.7705 23.958 60.7788C25.1813 60.7788 26.3963 60.8614 27.6113 60.8945C28.5329 60.9234 29.4792 60.9358 30.3967 61.0268C30.7479 61.0805 31.1034 61.1425 31.4422 61.2416C31.4629 61.254 31.4836 61.2664 31.5084 61.2788C31.5455 61.316 31.5786 61.3532 31.6117 61.3904C31.6902 61.5185 31.7687 61.6466 31.839 61.7789C31.9712 62.1674 32.0787 62.5558 32.1613 62.9567C32.1778 63.2749 32.1737 63.5931 32.1448 63.9155C32.0456 64.4238 31.9092 64.9238 31.7356 65.4156C31.5084 65.8578 31.2356 66.2711 30.9463 66.6719C30.5454 67.1307 30.0743 67.5109 29.5908 67.8828C28.7767 68.4779 27.9088 68.9904 26.9872 69.4078C25.8838 69.8747 24.7597 70.3335 23.5861 70.536C22.4331 70.6765 21.3462 70.8376 20.2924 71.4534C19.3584 71.9989 18.5649 72.9081 17.7714 73.6272C16.4903 74.7926 16.5895 76.9416 17.7714 78.1152C18.9368 79.2806 21.1106 79.4129 22.2512 78.1152C22.6645 77.6524 23.086 77.1813 23.5489 76.7639C23.5737 76.7473 23.6026 76.7349 23.6274 76.7184C23.7968 76.6688 23.9745 76.6316 24.1522 76.5986C25.0325 76.487 25.8962 76.363 26.7475 76.0613C27.5741 75.772 28.4006 75.4414 29.2106 75.0943C30.781 74.4413 32.1283 73.6561 33.459 72.5899C33.9714 72.1849 34.4921 71.7799 34.9798 71.3418C35.484 70.879 35.8972 70.2591 36.3022 69.7301C37.6412 67.9779 38.2198 65.7876 38.3933 63.6221C38.4843 62.4732 38.2859 61.2664 37.9635 60.1672C37.4511 58.4397 36.4262 56.9354 34.9715 55.8775C34.0541 55.2163 32.9796 54.9518 31.8886 54.7286C30.7066 54.4889 29.4834 54.431 28.2766 54.3567C26.8095 54.2699 25.3424 54.2162 23.8754 54.2162C22.8587 54.2162 21.838 54.2409 20.8131 54.2988C19.5485 54.3649 18.3087 54.4972 17.0606 54.6542C15.9985 54.7906 14.9406 54.9394 13.8909 55.1212C14.019 54.6501 14.1471 54.179 14.2835 53.712C14.7587 52.092 15.3084 50.5216 15.9448 48.9512ZM31.9299 64.9817C31.901 65.0561 31.872 65.1305 31.839 65.2049C31.8348 65.2131 31.8307 65.2214 31.8266 65.2255C31.8638 65.1429 31.8968 65.0602 31.9299 64.9817ZM31.8183 65.2503C31.7604 65.3908 31.7026 65.5313 31.6406 65.6718C31.6902 65.5561 31.7356 65.4404 31.7852 65.3206C31.7976 65.2999 31.81 65.2751 31.8183 65.2503ZM31.6406 65.6718C31.6365 65.6801 31.6323 65.6925 31.6282 65.7049C31.5993 65.771 31.5703 65.8413 31.5414 65.9074C31.5745 65.8289 31.6075 65.7504 31.6406 65.6718ZM23.6729 76.6564C23.6687 76.6564 23.6646 76.6564 23.6605 76.6564C23.6605 76.6564 23.6687 76.6564 23.6729 76.6564ZM23.6315 76.6605C23.5613 76.6688 23.4952 76.6812 23.4249 76.6853C23.4952 76.6812 23.5654 76.6688 23.6315 76.6605ZM49.9441 117.177C48.5555 117.194 47.1669 117.202 45.7784 117.218C42.7946 117.243 39.8108 117.202 36.8395 117.185C33.773 117.169 30.7149 117.235 27.6609 117.243C24.5118 117.26 21.3627 117.284 18.2095 117.342C15.6266 117.392 13.0478 117.322 10.4691 117.272C10.4732 116.846 10.4773 116.425 10.4773 115.999C10.4773 114.106 10.4277 112.205 10.3781 110.313C10.2748 106.713 10.3616 103.109 10.4608 99.5099C13.085 99.5471 15.7093 99.5058 18.3376 99.5058C21.5363 99.5058 24.7349 99.6876 27.9295 99.7207C31.029 99.7538 34.1284 99.7703 37.2238 99.7703C38.5049 99.7703 39.786 99.7868 41.0672 99.7951C42.6954 99.8116 44.3319 99.8364 45.9685 99.8116C47.9687 99.7868 49.9689 99.6959 51.9732 99.7042C52.0765 103.068 52.2956 106.432 52.4485 109.8C52.5311 111.668 52.5559 113.536 52.6055 115.404C52.6179 115.983 52.6262 116.565 52.6427 117.144C52.2336 117.148 51.8244 117.177 51.4153 117.177C50.9194 117.177 50.4317 117.169 49.9441 117.177ZM68.6443 61.9649C68.4997 62.7542 68.2724 63.5146 67.9955 64.2626C67.6649 64.9858 67.2805 65.6718 66.8962 66.3744C66.549 66.9984 66.2143 67.6348 65.8134 68.2299C65.4084 68.7176 64.9662 69.1805 64.491 69.602C63.6975 70.1351 62.8255 70.5484 62.0238 71.0773C61.5816 71.3708 61.1353 71.6642 60.6642 71.9121C60.6435 71.9163 60.627 71.9245 60.6063 71.9287C60.5112 71.9287 60.4162 71.9287 60.3211 71.9245C60.0236 71.8584 59.7302 71.7799 59.4368 71.6807C59.2467 71.5857 59.0648 71.4823 58.883 71.3708C58.7383 71.2385 58.602 71.1021 58.4739 70.9575C58.3871 70.8211 58.3086 70.6806 58.2342 70.5401C58.0027 69.8582 57.8457 69.1557 57.6845 68.4531C57.668 68.3911 57.6225 68.3498 57.606 68.2919C58.1598 67.6514 58.6805 66.9819 59.1599 66.2917C60.6807 64.0932 61.9866 61.688 62.9867 59.2208C63.5859 57.7496 63.7058 56.1916 63.7554 54.6129C63.9579 54.6046 64.1562 54.5716 64.3546 54.5757C64.929 54.6831 65.4828 54.8278 66.0366 55.0096C66.4209 55.208 66.7846 55.4477 67.14 55.6998C67.3797 55.9105 67.5987 56.1337 67.8095 56.3734C67.9376 56.5635 68.0533 56.7577 68.1566 56.9561C68.3881 57.6132 68.5616 58.2827 68.6815 58.9687C68.76 59.9688 68.7435 60.9648 68.6443 61.9649Z" fill="#111918"/>
</svg>
